<?xml version="1.0" encoding="UTF-8"?>
<!-- Generator: visioncortex VTracer 0.6.3 -->
<svg version="1.1" xmlns="http://www.w3.org/2000/svg" width="1280" height="1280">
<path d="M0 0 C2.17 0 4.34 -0.02 6.5 -0.05 C13.66 -0.08 19.68 0.16 26.24 3.32 C27.08 3.61 27.92 3.9 28.79 4.2 C35.91 6.79 42.3 10.6 48.24 15.32 C48.24 15.98 48.24 16.64 48.24 17.32 C49.07 17.66 49.07 17.66 49.93 18 C52.9 19.69 54.88 21.85 57.24 24.32 C58.06 25.14 58.89 25.97 59.74 26.82 C65.57 32.65 71.41 38.48 77.24 44.32 C78.6 45.65 78.6 45.65 79.99 47 C82.24 49.32 82.24 49.32 83.24 51.32 C84.23 51.65 85.22 51.98 86.24 52.32 C87.89 53.95 87.89 53.95 89.61 56 C90.22 56.72 90.83 57.44 91.46 58.18 C92.05 58.88 92.63 59.59 93.24 60.32 C93.74 60.92 94.25 61.52 94.77 62.14 C95.93 63.53 97.09 64.92 98.24 66.32 C98.57 66.65 98.9 66.98 99.24 67.32 C99.67 68.08 100.11 68.84 100.55 69.63 C102.07 72.32 102.07 72.32 104.11 74 C107.42 77.6 109.57 81.73 111.24 86.32 C111.05 89.94 111.05 89.94 110.24 92.32 C111.23 92.65 112.22 92.98 113.24 93.32 C115.64 100.51 116.11 109.78 115.24 117.32 C114.58 117.98 113.92 118.64 113.24 119.32 C112.7 121.57 112.7 121.57 112.36 124.19 C107.92 150.35 88.89 165.81 70.96 183.68 C69 185.64 67.04 187.6 65.08 189.56 C60.83 193.8 56.58 198.04 52.33 202.28 C46.01 208.58 39.69 214.89 33.37 221.19 C23.39 231.16 13.41 241.12 3.43 251.08 C-12.4 266.88 -28.23 282.69 -44.06 298.5 C-47.43 301.86 -50.8 305.23 -54.17 308.6 C-58.26 312.69 -62.35 316.77 -66.45 320.86 C-81.86 336.25 -97.27 351.64 -112.68 367.03 C-113.38 367.74 -114.09 368.44 -114.81 369.16 C-137.67 392 -160.54 414.82 -183.41 437.64 C-206.94 461.11 -230.45 484.6 -253.96 508.09 C-257.27 511.4 -260.59 514.71 -263.91 518.03 C-264.56 518.68 -265.21 519.33 -265.88 520 C-276.4 530.51 -286.93 541.01 -297.46 551.51 C-308.02 562.04 -318.58 572.59 -329.13 583.14 C-335.41 589.42 -341.69 595.68 -347.98 601.94 C-352.17 606.12 -356.36 610.3 -360.54 614.49 C-362.92 616.88 -365.31 619.27 -367.71 621.64 C-370.29 624.2 -372.85 626.77 -375.4 629.35 C-376.54 630.46 -376.54 630.46 -377.69 631.6 C-378.37 632.28 -379.04 632.97 -379.74 633.68 C-380.33 634.26 -380.92 634.85 -381.52 635.45 C-383.15 637.9 -383.11 639.44 -382.76 642.32 C-381.18 644.53 -381.18 644.53 -379.01 646.44 C-378.31 647.1 -377.62 647.77 -376.9 648.45 C-374.92 650.18 -372.88 651.75 -370.76 653.32 C-369.74 654.3 -368.74 655.29 -367.76 656.32 C-367.1 656.98 -366.44 657.64 -365.76 658.32 C-275.76 748.32 -275.76 748.32 -274.26 749.88 C-272.8 751.42 -272.8 751.42 -270.76 752.32 C-270.76 752.98 -270.76 753.64 -270.76 754.32 C-270.1 754.32 -269.44 754.32 -268.76 754.32 C-267.14 755.69 -267.14 755.69 -265.76 757.32 C-265.76 757.98 -265.76 758.64 -265.76 759.32 C-265.1 759.32 -264.44 759.32 -263.76 759.32 C-262.14 760.69 -262.14 760.69 -260.76 762.32 C-260.76 762.98 -260.76 763.64 -260.76 764.32 C-260.1 764.32 -259.44 764.32 -258.76 764.32 C-257.14 765.69 -257.14 765.69 -255.76 767.32 C-255.76 767.98 -255.76 768.64 -255.76 769.32 C-255.1 769.32 -254.44 769.32 -253.76 769.32 C-252.14 770.69 -252.14 770.69 -250.76 772.32 C-250.76 772.98 -250.76 773.64 -250.76 774.32 C-250.1 774.32 -249.44 774.32 -248.76 774.32 C-247.14 775.69 -247.14 775.69 -245.76 777.32 C-245.76 777.98 -245.76 778.64 -245.76 779.32 C-245.1 779.32 -244.44 779.32 -243.76 779.32 C-242.14 780.69 -242.14 780.69 -240.76 782.32 C-240.76 782.98 -240.76 783.64 -240.76 784.32 C-240.1 784.32 -239.44 784.32 -238.76 784.32 C-237.14 785.69 -237.14 785.69 -235.76 787.32 C-235.76 787.98 -235.76 788.64 -235.76 789.32 C-235.1 789.32 -234.44 789.32 -233.76 789.32 C-232.14 790.69 -232.14 790.69 -230.76 792.32 C-230.76 792.98 -230.76 793.64 -230.76 794.32 C-230.1 794.32 -229.44 794.32 -228.76 794.32 C-227.14 795.69 -227.14 795.69 -225.76 797.32 C-225.76 797.98 -225.76 798.64 -225.76 799.32 C-225.1 799.32 -224.44 799.32 -223.76 799.32 C-222.14 800.69 -222.14 800.69 -220.76 802.32 C-220.76 802.98 -220.76 803.64 -220.76 804.32 C-220.1 804.32 -219.44 804.32 -218.76 804.32 C-217.14 805.69 -217.14 805.69 -215.76 807.32 C-215.76 807.98 -215.76 808.64 -215.76 809.32 C-215.1 809.32 -214.44 809.32 -213.76 809.32 C-212.14 810.69 -212.14 810.69 -210.76 812.32 C-210.76 812.98 -210.76 813.64 -210.76 814.32 C-210.1 814.32 -209.44 814.32 -208.76 814.32 C-207.14 815.69 -207.14 815.69 -205.76 817.32 C-205.76 817.98 -205.76 818.64 -205.76 819.32 C-205.1 819.32 -204.44 819.32 -203.76 819.32 C-202.14 820.69 -202.14 820.69 -200.76 822.32 C-200.76 822.98 -200.76 823.64 -200.76 824.32 C-200.1 824.32 -199.44 824.32 -198.76 824.32 C-197.14 825.69 -197.14 825.69 -195.76 827.32 C-195.76 827.98 -195.76 828.64 -195.76 829.32 C-195.1 829.32 -194.44 829.32 -193.76 829.32 C-192.14 830.69 -192.14 830.69 -190.76 832.32 C-190.76 832.98 -190.76 833.64 -190.76 834.32 C-190.1 834.32 -189.44 834.32 -188.76 834.32 C-187.14 835.69 -187.14 835.69 -185.76 837.32 C-185.76 837.98 -185.76 838.64 -185.76 839.32 C-185.1 839.32 -184.44 839.32 -183.76 839.32 C-182.14 840.69 -182.14 840.69 -180.76 842.32 C-180.76 842.98 -180.76 843.64 -180.76 844.32 C-180.1 844.32 -179.44 844.32 -178.76 844.32 C-177.14 845.69 -177.14 845.69 -175.76 847.32 C-175.76 847.98 -175.76 848.64 -175.76 849.32 C-175.1 849.32 -174.44 849.32 -173.76 849.32 C-172.14 850.69 -172.14 850.69 -170.76 852.32 C-170.76 852.98 -170.76 853.64 -170.76 854.32 C-170.1 854.65 -169.44 854.98 -168.76 855.32 C-167.38 856.93 -166 858.55 -164.63 860.18 C-160.93 864.41 -156.89 868.33 -152.91 872.3 C-151.96 873.25 -151.02 874.19 -150.07 875.14 C-148.1 877.11 -146.13 879.08 -144.16 881.05 C-141.63 883.57 -139.11 886.09 -136.6 888.61 C-134.65 890.56 -132.7 892.51 -130.75 894.46 C-129.37 895.84 -127.99 897.22 -126.62 898.6 C-125.77 899.44 -124.93 900.28 -124.07 901.14 C-123.33 901.88 -122.59 902.61 -121.83 903.37 C-119.9 905.19 -117.9 906.75 -115.76 908.32 C-114.74 909.3 -113.74 910.29 -112.76 911.32 C-112.1 911.98 -111.44 912.64 -110.76 913.32 C-70.76 953.32 -70.76 953.32 -69.26 954.88 C-67.8 956.42 -67.8 956.42 -65.76 957.32 C-65.76 957.98 -65.76 958.64 -65.76 959.32 C-65.1 959.32 -64.44 959.32 -63.76 959.32 C-62.14 960.69 -62.14 960.69 -60.76 962.32 C-60.76 962.98 -60.76 963.64 -60.76 964.32 C-60.1 964.32 -59.44 964.32 -58.76 964.32 C-57.14 965.69 -57.14 965.69 -55.76 967.32 C-55.76 967.98 -55.76 968.64 -55.76 969.32 C-55.1 969.32 -54.44 969.32 -53.76 969.32 C-52.14 970.69 -52.14 970.69 -50.76 972.32 C-50.76 972.98 -50.76 973.64 -50.76 974.32 C-50.1 974.32 -49.44 974.32 -48.76 974.32 C-47.14 975.69 -47.14 975.69 -45.76 977.32 C-45.76 977.98 -45.76 978.64 -45.76 979.32 C-45.1 979.32 -44.44 979.32 -43.76 979.32 C-42.14 980.69 -42.14 980.69 -40.76 982.32 C-40.76 982.98 -40.76 983.64 -40.76 984.32 C-40.1 984.32 -39.44 984.32 -38.76 984.32 C-37.14 985.69 -37.14 985.69 -35.76 987.32 C-35.76 987.98 -35.76 988.64 -35.76 989.32 C-35.1 989.32 -34.44 989.32 -33.76 989.32 C-32.14 990.69 -32.14 990.69 -30.76 992.32 C-30.76 992.98 -30.76 993.64 -30.76 994.32 C-30.1 994.32 -29.44 994.32 -28.76 994.32 C-27.14 995.69 -27.14 995.69 -25.76 997.32 C-25.76 997.98 -25.76 998.64 -25.76 999.32 C-25.1 999.32 -24.44 999.32 -23.76 999.32 C-22.14 1000.69 -22.14 1000.69 -20.76 1002.32 C-20.76 1002.98 -20.76 1003.64 -20.76 1004.32 C-20.1 1004.32 -19.44 1004.32 -18.76 1004.32 C-17.14 1005.69 -17.14 1005.69 -15.76 1007.32 C-15.76 1007.98 -15.76 1008.64 -15.76 1009.32 C-15.1 1009.32 -14.44 1009.32 -13.76 1009.32 C-12.14 1010.69 -12.14 1010.69 -10.76 1012.32 C-10.76 1012.98 -10.76 1013.64 -10.76 1014.32 C-10.1 1014.32 -9.44 1014.32 -8.76 1014.32 C-7.14 1015.69 -7.14 1015.69 -5.76 1017.32 C-5.76 1017.98 -5.76 1018.64 -5.76 1019.32 C-5.1 1019.32 -4.44 1019.32 -3.76 1019.32 C-2.14 1020.69 -2.14 1020.69 -0.76 1022.32 C-0.76 1022.98 -0.76 1023.64 -0.76 1024.32 C-0.1 1024.32 0.56 1024.32 1.24 1024.32 C2.86 1025.69 2.86 1025.69 4.24 1027.32 C4.24 1027.98 4.24 1028.64 4.24 1029.32 C4.9 1029.32 5.56 1029.32 6.24 1029.32 C7.86 1030.69 7.86 1030.69 9.24 1032.32 C9.24 1032.98 9.24 1033.64 9.24 1034.32 C9.9 1034.32 10.56 1034.32 11.24 1034.32 C12.86 1035.69 12.86 1035.69 14.24 1037.32 C14.24 1037.98 14.24 1038.64 14.24 1039.32 C14.9 1039.32 15.56 1039.32 16.24 1039.32 C17.86 1040.69 17.86 1040.69 19.24 1042.32 C19.24 1042.98 19.24 1043.64 19.24 1044.32 C19.9 1044.32 20.56 1044.32 21.24 1044.32 C23.24 1047.32 23.24 1047.32 24.24 1049.32 C24.9 1049.32 25.56 1049.32 26.24 1049.32 C27.86 1050.69 27.86 1050.69 29.24 1052.32 C29.24 1052.98 29.24 1053.64 29.24 1054.32 C29.9 1054.32 30.56 1054.32 31.24 1054.32 C32.86 1055.69 32.86 1055.69 34.24 1057.32 C34.24 1057.98 34.24 1058.64 34.24 1059.32 C34.9 1059.32 35.56 1059.32 36.24 1059.32 C37.28 1060.62 38.27 1061.96 39.24 1063.32 C40.22 1064.34 41.22 1065.34 42.24 1066.32 C59.24 1083.32 76.24 1100.32 93.24 1117.32 C93.82 1117.85 94.39 1118.39 94.99 1118.94 C96.24 1120.32 96.24 1120.32 96.24 1122.32 C96.9 1122.32 97.56 1122.32 98.24 1122.32 C105.71 1129.76 110.64 1141.3 113.24 1151.32 C113.42 1151.92 113.6 1152.52 113.78 1153.14 C114.86 1158.25 114.42 1163.67 114.43 1168.88 C114.44 1170.12 114.45 1171.37 114.46 1172.65 C114.47 1174.44 114.47 1174.44 114.47 1176.26 C114.47 1177.35 114.48 1178.44 114.48 1179.56 C114.24 1182.32 114.24 1182.32 112.24 1185.32 C111.15 1188.27 111.15 1188.27 110.86 1191.32 C110.17 1194.65 109.56 1195.04 107.24 1197.32 C106.53 1198.59 105.87 1199.88 105.24 1201.19 C97.4 1215.47 84.05 1226.85 72.64 1238.23 C70.22 1240.65 67.8 1243.08 65.39 1245.51 C63.05 1247.88 60.69 1250.23 58.33 1252.59 C57.48 1253.44 56.63 1254.3 55.76 1255.19 C46.92 1263.96 37.8 1270.63 26.24 1275.32 C21.46 1276.88 21.46 1276.88 18.24 1280.32 C7.35 1280.32 -3.54 1280.32 -14.76 1280.32 C-14.76 1279.66 -14.76 1279 -14.76 1278.32 C-16 1278.43 -16 1278.43 -17.27 1278.54 C-21.7 1278.26 -24.69 1276.79 -28.57 1274.75 C-29.28 1274.39 -29.98 1274.03 -30.71 1273.66 C-36.22 1270.77 -41.03 1267.37 -45.76 1263.32 C-46.5 1262.8 -47.24 1262.28 -47.99 1261.74 C-48.87 1261.04 -48.87 1261.04 -49.76 1260.32 C-49.76 1259.66 -49.76 1259 -49.76 1258.32 C-50.42 1258.32 -51.08 1258.32 -51.76 1258.32 C-53.39 1256.94 -53.39 1256.94 -54.76 1255.32 C-54.76 1254.66 -54.76 1254 -54.76 1253.32 C-55.42 1253.32 -56.08 1253.32 -56.76 1253.32 C-58.39 1251.94 -58.39 1251.94 -59.76 1250.32 C-59.76 1249.66 -59.76 1249 -59.76 1248.32 C-60.42 1248.32 -61.08 1248.32 -61.76 1248.32 C-63.39 1246.94 -63.39 1246.94 -64.76 1245.32 C-64.76 1244.66 -64.76 1244 -64.76 1243.32 C-65.42 1243.32 -66.08 1243.32 -66.76 1243.32 C-68.39 1241.94 -68.39 1241.94 -69.76 1240.32 C-69.76 1239.66 -69.76 1239 -69.76 1238.32 C-70.42 1238.32 -71.08 1238.32 -71.76 1238.32 C-73.39 1236.94 -73.39 1236.94 -74.76 1235.32 C-74.76 1234.66 -74.76 1234 -74.76 1233.32 C-75.42 1233.32 -76.08 1233.32 -76.76 1233.32 C-78.39 1231.94 -78.39 1231.94 -79.76 1230.32 C-79.76 1229.66 -79.76 1229 -79.76 1228.32 C-80.42 1228.32 -81.08 1228.32 -81.76 1228.32 C-83.39 1226.94 -83.39 1226.94 -84.76 1225.32 C-84.76 1224.66 -84.76 1224 -84.76 1223.32 C-85.42 1223.32 -86.08 1223.32 -86.76 1223.32 C-88.39 1221.94 -88.39 1221.94 -89.76 1220.32 C-89.76 1219.66 -89.76 1219 -89.76 1218.32 C-90.42 1218.32 -91.08 1218.32 -91.76 1218.32 C-93.39 1216.94 -93.39 1216.94 -94.76 1215.32 C-94.76 1214.66 -94.76 1214 -94.76 1213.32 C-95.42 1213.32 -96.08 1213.32 -96.76 1213.32 C-98.39 1211.94 -98.39 1211.94 -99.76 1210.32 C-99.76 1209.66 -99.76 1209 -99.76 1208.32 C-100.42 1208.32 -101.08 1208.32 -101.76 1208.32 C-103.39 1206.94 -103.39 1206.94 -104.76 1205.32 C-104.76 1204.66 -104.76 1204 -104.76 1203.32 C-105.42 1203.32 -106.08 1203.32 -106.76 1203.32 C-108.39 1201.94 -108.39 1201.94 -109.76 1200.32 C-109.76 1199.66 -109.76 1199 -109.76 1198.32 C-110.42 1198.32 -111.08 1198.32 -111.76 1198.32 C-113.39 1196.94 -113.39 1196.94 -114.76 1195.32 C-114.76 1194.66 -114.76 1194 -114.76 1193.32 C-115.42 1193.32 -116.08 1193.32 -116.76 1193.32 C-118.39 1191.94 -118.39 1191.94 -119.76 1190.32 C-119.76 1189.66 -119.76 1189 -119.76 1188.32 C-120.42 1188.32 -121.08 1188.32 -121.76 1188.32 C-123.39 1186.94 -123.39 1186.94 -124.76 1185.32 C-124.76 1184.66 -124.76 1184 -124.76 1183.32 C-125.42 1183.32 -126.08 1183.32 -126.76 1183.32 C-128.39 1181.94 -128.39 1181.94 -129.76 1180.32 C-129.76 1179.66 -129.76 1179 -129.76 1178.32 C-130.42 1178.32 -131.08 1178.32 -131.76 1178.32 C-133.39 1176.94 -133.39 1176.94 -134.76 1175.32 C-134.76 1174.66 -134.76 1174 -134.76 1173.32 C-135.42 1173.32 -136.08 1173.32 -136.76 1173.32 C-138.39 1171.94 -138.39 1171.94 -139.76 1170.32 C-139.76 1169.66 -139.76 1169 -139.76 1168.32 C-140.42 1168.32 -141.08 1168.32 -141.76 1168.32 C-143.39 1166.94 -143.39 1166.94 -144.76 1165.32 C-144.76 1164.66 -144.76 1164 -144.76 1163.32 C-145.42 1163.32 -146.08 1163.32 -146.76 1163.32 C-148.39 1161.94 -148.39 1161.94 -149.76 1160.32 C-149.76 1159.66 -149.76 1159 -149.76 1158.32 C-150.42 1158.32 -151.08 1158.32 -151.76 1158.32 C-153.39 1156.94 -153.39 1156.94 -154.76 1155.32 C-154.76 1154.66 -154.76 1154 -154.76 1153.32 C-155.42 1153.32 -156.08 1153.32 -156.76 1153.32 C-158.39 1151.94 -158.39 1151.94 -159.76 1150.32 C-159.76 1149.66 -159.76 1149 -159.76 1148.32 C-160.42 1148.32 -161.08 1148.32 -161.76 1148.32 C-163.39 1146.94 -163.39 1146.94 -164.76 1145.32 C-164.76 1144.66 -164.76 1144 -164.76 1143.32 C-165.42 1143.32 -166.08 1143.32 -166.76 1143.32 C-168.39 1141.94 -168.39 1141.94 -169.76 1140.32 C-169.76 1139.66 -169.76 1139 -169.76 1138.32 C-170.42 1138.32 -171.08 1138.32 -171.76 1138.32 C-173.39 1136.94 -173.39 1136.94 -174.76 1135.32 C-174.76 1134.66 -174.76 1134 -174.76 1133.32 C-175.42 1133.32 -176.08 1133.32 -176.76 1133.32 C-178.39 1131.94 -178.39 1131.94 -179.76 1130.32 C-179.76 1129.66 -179.76 1129 -179.76 1128.32 C-180.42 1128.32 -181.08 1128.32 -181.76 1128.32 C-183.39 1126.94 -183.39 1126.94 -184.76 1125.32 C-184.76 1124.66 -184.76 1124 -184.76 1123.32 C-185.42 1123.32 -186.08 1123.32 -186.76 1123.32 C-188.39 1121.94 -188.39 1121.94 -189.76 1120.32 C-189.76 1119.66 -189.76 1119 -189.76 1118.32 C-190.42 1118.32 -191.08 1118.32 -191.76 1118.32 C-193.39 1116.94 -193.39 1116.94 -194.76 1115.32 C-194.76 1114.66 -194.76 1114 -194.76 1113.32 C-195.42 1113.32 -196.08 1113.32 -196.76 1113.32 C-198.39 1111.94 -198.39 1111.94 -199.76 1110.32 C-199.76 1109.66 -199.76 1109 -199.76 1108.32 C-200.42 1108.32 -201.08 1108.32 -201.76 1108.32 C-203.39 1106.94 -203.39 1106.94 -204.76 1105.32 C-204.76 1104.66 -204.76 1104 -204.76 1103.32 C-205.42 1103.32 -206.08 1103.32 -206.76 1103.32 C-208.39 1101.94 -208.39 1101.94 -209.76 1100.32 C-209.76 1099.66 -209.76 1099 -209.76 1098.32 C-210.42 1098.32 -211.08 1098.32 -211.76 1098.32 C-213.39 1096.94 -213.39 1096.94 -214.76 1095.32 C-214.76 1094.66 -214.76 1094 -214.76 1093.32 C-215.42 1093.32 -216.08 1093.32 -216.76 1093.32 C-218.39 1091.94 -218.39 1091.94 -219.76 1090.32 C-219.76 1089.66 -219.76 1089 -219.76 1088.32 C-220.42 1088.32 -221.08 1088.32 -221.76 1088.32 C-223.39 1086.94 -223.39 1086.94 -224.76 1085.32 C-224.76 1084.66 -224.76 1084 -224.76 1083.32 C-225.42 1083.32 -226.08 1083.32 -226.76 1083.32 C-228.39 1081.94 -228.39 1081.94 -229.76 1080.32 C-229.76 1079.66 -229.76 1079 -229.76 1078.32 C-230.42 1078.32 -231.08 1078.32 -231.76 1078.32 C-233.39 1076.94 -233.39 1076.94 -234.76 1075.32 C-234.76 1074.66 -234.76 1074 -234.76 1073.32 C-235.42 1073.32 -236.08 1073.32 -236.76 1073.32 C-238.39 1071.94 -238.39 1071.94 -239.76 1070.32 C-239.76 1069.66 -239.76 1069 -239.76 1068.32 C-240.42 1068.32 -241.08 1068.32 -241.76 1068.32 C-243.39 1066.94 -243.39 1066.94 -244.76 1065.32 C-244.76 1064.66 -244.76 1064 -244.76 1063.32 C-245.42 1063.32 -246.08 1063.32 -246.76 1063.32 C-248.39 1061.94 -248.39 1061.94 -249.76 1060.32 C-249.76 1059.66 -249.76 1059 -249.76 1058.32 C-250.42 1058.32 -251.08 1058.32 -251.76 1058.32 C-253.39 1056.94 -253.39 1056.94 -254.76 1055.32 C-254.76 1054.66 -254.76 1054 -254.76 1053.32 C-255.42 1053.32 -256.08 1053.32 -256.76 1053.32 C-258.39 1051.94 -258.39 1051.94 -259.76 1050.32 C-259.76 1049.66 -259.76 1049 -259.76 1048.32 C-260.42 1048.32 -261.08 1048.32 -261.76 1048.32 C-263.39 1046.94 -263.39 1046.94 -264.76 1045.32 C-264.76 1044.66 -264.76 1044 -264.76 1043.32 C-265.42 1043.32 -266.08 1043.32 -266.76 1043.32 C-268.39 1041.94 -268.39 1041.94 -269.76 1040.32 C-269.76 1039.66 -269.76 1039 -269.76 1038.32 C-270.42 1038.32 -271.08 1038.32 -271.76 1038.32 C-273.39 1036.94 -273.39 1036.94 -274.76 1035.32 C-274.76 1034.66 -274.76 1034 -274.76 1033.32 C-275.42 1033.32 -276.08 1033.32 -276.76 1033.32 C-278.39 1031.94 -278.39 1031.94 -279.76 1030.32 C-279.76 1029.66 -279.76 1029 -279.76 1028.32 C-280.42 1028.32 -281.08 1028.32 -281.76 1028.32 C-283.39 1026.94 -283.39 1026.94 -284.76 1025.32 C-284.76 1024.66 -284.76 1024 -284.76 1023.32 C-285.42 1023.32 -286.08 1023.32 -286.76 1023.32 C-288.39 1021.94 -288.39 1021.94 -289.76 1020.32 C-289.76 1019.66 -289.76 1019 -289.76 1018.32 C-290.42 1018.32 -291.08 1018.32 -291.76 1018.32 C-293.39 1016.94 -293.39 1016.94 -294.76 1015.32 C-294.76 1014.66 -294.76 1014 -294.76 1013.32 C-295.42 1013.32 -296.08 1013.32 -296.76 1013.32 C-298.39 1011.94 -298.39 1011.94 -299.76 1010.32 C-299.76 1009.66 -299.76 1009 -299.76 1008.32 C-300.42 1008.32 -301.08 1008.32 -301.76 1008.32 C-303.39 1006.94 -303.39 1006.94 -304.76 1005.32 C-304.76 1004.66 -304.76 1004 -304.76 1003.32 C-305.42 1003.32 -306.08 1003.32 -306.76 1003.32 C-308.39 1001.94 -308.39 1001.94 -309.76 1000.32 C-309.76 999.66 -309.76 999 -309.76 998.32 C-310.42 998.32 -311.08 998.32 -311.76 998.32 C-313.39 996.94 -313.39 996.94 -314.76 995.32 C-314.76 994.66 -314.76 994 -314.76 993.32 C-315.42 993.32 -316.08 993.32 -316.76 993.32 C-318.39 991.94 -318.39 991.94 -319.76 990.32 C-319.76 989.66 -319.76 989 -319.76 988.32 C-320.42 988.32 -321.08 988.32 -321.76 988.32 C-323.39 986.94 -323.39 986.94 -324.76 985.32 C-324.76 984.66 -324.76 984 -324.76 983.32 C-325.42 983.32 -326.08 983.32 -326.76 983.32 C-328.39 981.94 -328.39 981.94 -329.76 980.32 C-329.76 979.66 -329.76 979 -329.76 978.32 C-330.42 978.32 -331.08 978.32 -331.76 978.32 C-333.39 976.94 -333.39 976.94 -334.76 975.32 C-334.76 974.66 -334.76 974 -334.76 973.32 C-335.42 973.32 -336.08 973.32 -336.76 973.32 C-338.39 971.94 -338.39 971.94 -339.76 970.32 C-339.76 969.66 -339.76 969 -339.76 968.32 C-340.42 968.32 -341.08 968.32 -341.76 968.32 C-343.39 966.94 -343.39 966.94 -344.76 965.32 C-344.76 964.66 -344.76 964 -344.76 963.32 C-345.42 963.32 -346.08 963.32 -346.76 963.32 C-348.39 961.94 -348.39 961.94 -349.76 960.32 C-349.76 959.66 -349.76 959 -349.76 958.32 C-350.42 958.32 -351.08 958.32 -351.76 958.32 C-353.39 956.94 -353.39 956.94 -354.76 955.32 C-354.76 954.66 -354.76 954 -354.76 953.32 C-355.42 953.32 -356.08 953.32 -356.76 953.32 C-358.39 951.94 -358.39 951.94 -359.76 950.32 C-359.76 949.66 -359.76 949 -359.76 948.32 C-360.42 948.32 -361.08 948.32 -361.76 948.32 C-363.39 946.94 -363.39 946.94 -364.76 945.32 C-364.76 944.66 -364.76 944 -364.76 943.32 C-365.42 943.32 -366.08 943.32 -366.76 943.32 C-368.39 941.94 -368.39 941.94 -369.76 940.32 C-369.76 939.66 -369.76 939 -369.76 938.32 C-370.42 938.32 -371.08 938.32 -371.76 938.32 C-373.39 936.94 -373.39 936.94 -374.76 935.32 C-374.76 934.66 -374.76 934 -374.76 933.32 C-375.42 933.32 -376.08 933.32 -376.76 933.32 C-378.39 931.94 -378.39 931.94 -379.76 930.32 C-379.76 929.66 -379.76 929 -379.76 928.32 C-380.42 928.32 -381.08 928.32 -381.76 928.32 C-383.39 926.94 -383.39 926.94 -384.76 925.32 C-384.76 924.66 -384.76 924 -384.76 923.32 C-385.42 923.32 -386.08 923.32 -386.76 923.32 C-388.39 921.94 -388.39 921.94 -389.76 920.32 C-389.76 919.66 -389.76 919 -389.76 918.32 C-390.42 918.32 -391.08 918.32 -391.76 918.32 C-393.39 916.94 -393.39 916.94 -394.76 915.32 C-394.76 914.66 -394.76 914 -394.76 913.32 C-395.42 913.32 -396.08 913.32 -396.76 913.32 C-398.39 911.94 -398.39 911.94 -399.76 910.32 C-399.76 909.66 -399.76 909 -399.76 908.32 C-400.42 908.32 -401.08 908.32 -401.76 908.32 C-403.39 906.94 -403.39 906.94 -404.76 905.32 C-404.76 904.66 -404.76 904 -404.76 903.32 C-405.42 903.32 -406.08 903.32 -406.76 903.32 C-408.39 901.94 -408.39 901.94 -409.76 900.32 C-409.76 899.66 -409.76 899 -409.76 898.32 C-410.42 898.32 -411.08 898.32 -411.76 898.32 C-413.39 896.94 -413.39 896.94 -414.76 895.32 C-414.76 894.66 -414.76 894 -414.76 893.32 C-415.42 893.32 -416.08 893.32 -416.76 893.32 C-418.39 891.94 -418.39 891.94 -419.76 890.32 C-419.76 889.66 -419.76 889 -419.76 888.32 C-420.42 888.32 -421.08 888.32 -421.76 888.32 C-423.39 886.94 -423.39 886.94 -424.76 885.32 C-424.76 884.66 -424.76 884 -424.76 883.32 C-425.42 883.32 -426.08 883.32 -426.76 883.32 C-428.39 881.94 -428.39 881.94 -429.76 880.32 C-429.76 879.66 -429.76 879 -429.76 878.32 C-430.42 878.32 -431.08 878.32 -431.76 878.32 C-433.39 876.94 -433.39 876.94 -434.76 875.32 C-434.76 874.66 -434.76 874 -434.76 873.32 C-435.42 873.32 -436.08 873.32 -436.76 873.32 C-438.39 871.94 -438.39 871.94 -439.76 870.32 C-439.76 869.66 -439.76 869 -439.76 868.32 C-440.42 868.32 -441.08 868.32 -441.76 868.32 C-443.39 866.94 -443.39 866.94 -444.76 865.32 C-444.76 864.66 -444.76 864 -444.76 863.32 C-445.42 863.32 -446.08 863.32 -446.76 863.32 C-448.39 861.94 -448.39 861.94 -449.76 860.32 C-449.76 859.66 -449.76 859 -449.76 858.32 C-450.42 858.32 -451.08 858.32 -451.76 858.32 C-453.39 856.94 -453.39 856.94 -454.76 855.32 C-454.76 854.66 -454.76 854 -454.76 853.32 C-455.42 853.32 -456.08 853.32 -456.76 853.32 C-458.39 851.94 -458.39 851.94 -459.76 850.32 C-459.76 849.66 -459.76 849 -459.76 848.32 C-460.42 848.32 -461.08 848.32 -461.76 848.32 C-463.39 846.94 -463.39 846.94 -464.76 845.32 C-464.76 844.66 -464.76 844 -464.76 843.32 C-465.42 843.32 -466.08 843.32 -466.76 843.32 C-468.39 841.94 -468.39 841.94 -469.76 840.32 C-469.76 839.66 -469.76 839 -469.76 838.32 C-470.42 838.32 -471.08 838.32 -471.76 838.32 C-473.39 836.94 -473.39 836.94 -474.76 835.32 C-474.76 834.66 -474.76 834 -474.76 833.32 C-475.42 833.32 -476.08 833.32 -476.76 833.32 C-478.39 831.94 -478.39 831.94 -479.76 830.32 C-479.76 829.66 -479.76 829 -479.76 828.32 C-480.42 828.32 -481.08 828.32 -481.76 828.32 C-483.39 826.94 -483.39 826.94 -484.76 825.32 C-484.76 824.66 -484.76 824 -484.76 823.32 C-485.42 823.32 -486.08 823.32 -486.76 823.32 C-488.39 821.94 -488.39 821.94 -489.76 820.32 C-489.76 819.66 -489.76 819 -489.76 818.32 C-490.42 818.32 -491.08 818.32 -491.76 818.32 C-493.39 816.94 -493.39 816.94 -494.76 815.32 C-494.76 814.66 -494.76 814 -494.76 813.32 C-495.42 813.32 -496.08 813.32 -496.76 813.32 C-498.39 811.94 -498.39 811.94 -499.76 810.32 C-499.76 809.66 -499.76 809 -499.76 808.32 C-500.42 808.32 -501.08 808.32 -501.76 808.32 C-503.39 806.94 -503.39 806.94 -504.76 805.32 C-504.76 804.66 -504.76 804 -504.76 803.32 C-505.42 803.32 -506.08 803.32 -506.76 803.32 C-508.39 801.94 -508.39 801.94 -509.76 800.32 C-509.76 799.66 -509.76 799 -509.76 798.32 C-510.42 798.32 -511.08 798.32 -511.76 798.32 C-513.39 796.94 -513.39 796.94 -514.76 795.32 C-514.76 794.66 -514.76 794 -514.76 793.32 C-515.42 793.32 -516.08 793.32 -516.76 793.32 C-518.39 791.94 -518.39 791.94 -519.76 790.32 C-519.76 789.66 -519.76 789 -519.76 788.32 C-520.42 788.32 -521.08 788.32 -521.76 788.32 C-523.39 786.94 -523.39 786.94 -524.76 785.32 C-524.76 784.66 -524.76 784 -524.76 783.32 C-525.42 783.32 -526.08 783.32 -526.76 783.32 C-528.39 781.94 -528.39 781.94 -529.76 780.32 C-529.76 779.66 -529.76 779 -529.76 778.32 C-530.42 778.32 -531.08 778.32 -531.76 778.32 C-533.39 776.94 -533.39 776.94 -534.76 775.32 C-534.76 774.66 -534.76 774 -534.76 773.32 C-535.42 773.32 -536.08 773.32 -536.76 773.32 C-538.39 771.94 -538.39 771.94 -539.76 770.32 C-539.76 769.66 -539.76 769 -539.76 768.32 C-540.42 768.32 -541.08 768.32 -541.76 768.32 C-543.39 766.94 -543.39 766.94 -544.76 765.32 C-544.76 764.66 -544.76 764 -544.76 763.32 C-545.42 763.32 -546.08 763.32 -546.76 763.32 C-548.39 761.94 -548.39 761.94 -549.76 760.32 C-549.76 759.66 -549.76 759 -549.76 758.32 C-550.42 758.32 -551.08 758.32 -551.76 758.32 C-553.39 756.94 -553.39 756.94 -554.76 755.32 C-554.76 754.66 -554.76 754 -554.76 753.32 C-555.42 753.32 -556.08 753.32 -556.76 753.32 C-558.39 751.94 -558.39 751.94 -559.76 750.32 C-559.76 749.66 -559.76 749 -559.76 748.32 C-560.42 748.32 -561.08 748.32 -561.76 748.32 C-563.39 746.94 -563.39 746.94 -564.76 745.32 C-564.76 744.66 -564.76 744 -564.76 743.32 C-565.42 743.32 -566.08 743.32 -566.76 743.32 C-568.39 741.94 -568.39 741.94 -569.76 740.32 C-569.76 739.66 -569.76 739 -569.76 738.32 C-570.42 738.32 -571.08 738.32 -571.76 738.32 C-573.39 736.94 -573.39 736.94 -574.76 735.32 C-574.76 734.66 -574.76 734 -574.76 733.32 C-575.42 733.32 -576.08 733.32 -576.76 733.32 C-578.39 731.94 -578.39 731.94 -579.76 730.32 C-579.76 729.66 -579.76 729 -579.76 728.32 C-580.42 728.32 -581.08 728.32 -581.76 728.32 C-583.39 726.94 -583.39 726.94 -584.76 725.32 C-584.76 724.66 -584.76 724 -584.76 723.32 C-585.42 723.32 -586.08 723.32 -586.76 723.32 C-588.39 721.94 -588.39 721.94 -589.76 720.32 C-589.76 719.66 -589.76 719 -589.76 718.32 C-590.42 718.32 -591.08 718.32 -591.76 718.32 C-593.39 716.94 -593.39 716.94 -594.76 715.32 C-594.76 714.66 -594.76 714 -594.76 713.32 C-595.42 713.32 -596.08 713.32 -596.76 713.32 C-598.39 711.94 -598.39 711.94 -599.76 710.32 C-599.76 709.66 -599.76 709 -599.76 708.32 C-600.42 708.32 -601.08 708.32 -601.76 708.32 C-603.39 706.94 -603.39 706.94 -604.76 705.32 C-604.76 704.66 -604.76 704 -604.76 703.32 C-605.42 703.32 -606.08 703.32 -606.76 703.32 C-608.39 701.94 -608.39 701.94 -609.76 700.32 C-609.76 699.66 -609.76 699 -609.76 698.32 C-610.42 698.32 -611.08 698.32 -611.76 698.32 C-613.39 696.94 -613.39 696.94 -614.76 695.32 C-614.76 694.66 -614.76 694 -614.76 693.32 C-615.42 693.32 -616.08 693.32 -616.76 693.32 C-629.45 680.42 -638.14 663.5 -638.76 645.32 C-638.8 644.52 -638.84 643.72 -638.88 642.9 C-639.16 632.89 -638.03 622.44 -633.76 613.32 C-633.2 611.98 -633.2 611.98 -632.62 610.62 C-624.7 593.17 -608.86 580.13 -595.49 566.79 C-592.56 563.87 -589.63 560.93 -586.7 558 C-581.58 552.87 -576.45 547.75 -571.32 542.63 C-563.69 535.01 -556.07 527.38 -548.45 519.76 C-535.63 506.93 -522.8 494.11 -509.97 481.29 C-497.27 468.59 -484.57 455.9 -471.88 443.2 C-470.69 442.02 -470.69 442.02 -469.48 440.81 C-466.27 437.6 -463.07 434.39 -459.86 431.18 C-429.78 401.11 -399.7 371.04 -369.62 340.97 C-342.88 314.24 -316.15 287.52 -289.42 260.79 C-287.7 259.07 -285.98 257.35 -284.26 255.63 C-283.41 254.78 -282.56 253.93 -281.69 253.06 C-277.42 248.78 -273.14 244.51 -268.87 240.24 C-268.02 239.39 -267.18 238.55 -266.31 237.68 C-243.98 215.35 -221.64 193.02 -199.31 170.69 C-198.12 169.5 -198.12 169.5 -196.9 168.28 C-193.71 165.09 -190.51 161.9 -187.32 158.7 C-176.2 147.59 -165.08 136.47 -153.96 125.35 C-139.64 111.03 -125.32 96.71 -111 82.4 C-103.42 74.83 -95.84 67.25 -88.26 59.67 C-83.21 54.62 -78.15 49.56 -73.1 44.51 C-70.21 41.63 -67.33 38.75 -64.44 35.86 C-61.82 33.24 -59.2 30.62 -56.58 28 C-55.19 26.61 -53.8 25.22 -52.4 23.83 C-51.58 23 -50.76 22.18 -49.91 21.33 C-48.84 20.27 -48.84 20.27 -47.76 19.19 C-42.56 14.32 -42.56 14.32 -39.76 14.32 C-39.76 13.66 -39.76 13 -39.76 12.32 C-37.53 11.02 -35.3 9.73 -33.07 8.44 C-32.45 8.08 -31.82 7.71 -31.18 7.34 C-21.02 1.49 -11.62 -0.04 0 0 Z M104.24 76.32 C105.24 78.32 105.24 78.32 105.24 78.32 Z M111.24 93.32 C112.24 97.32 112.24 97.32 112.24 97.32 Z M112.24 97.32 C113.24 101.32 113.24 101.32 113.24 101.32 Z M113.24 108.32 C113.24 109.97 113.24 111.62 113.24 113.32 C113.57 113.32 113.9 113.32 114.24 113.32 C114.24 111.67 114.24 110.02 114.24 108.32 C113.91 108.32 113.58 108.32 113.24 108.32 Z M104.24 1133.32 C105.24 1135.32 105.24 1135.32 105.24 1135.32 Z M111.24 1151.32 C111.24 1153.3 111.24 1155.28 111.24 1157.32 C111.57 1157.32 111.9 1157.32 112.24 1157.32 C112.24 1155.34 112.24 1153.36 112.24 1151.32 C111.91 1151.32 111.58 1151.32 111.24 1151.32 Z M112.24 1157.32 C112.24 1159.96 112.24 1162.6 112.24 1165.32 C112.57 1165.32 112.9 1165.32 113.24 1165.32 C113.24 1162.68 113.24 1160.04 113.24 1157.32 C112.91 1157.32 112.58 1157.32 112.24 1157.32 Z M112.24 1168.32 C112.24 1171.95 112.24 1175.58 112.24 1179.32 C112.57 1179.32 112.9 1179.32 113.24 1179.32 C113.24 1175.69 113.24 1172.06 113.24 1168.32 C112.91 1168.32 112.58 1168.32 112.24 1168.32 Z M109.24 1188.32 C110.24 1191.32 110.24 1191.32 110.24 1191.32 Z " fill="#000002" transform="translate(901.760498046875,-0.315673828125)"/>
<path d="M0 0 C0.33 0 0.66 0 1 0 C1.05 1.42 1.09 2.83 1.12 4.25 C1.15 5.04 1.17 5.83 1.2 6.64 C0.98 9.21 0.29 10.79 -1 13 C-2.41 10.19 -1.67 8.43 -1.06 5.38 C-0.87 4.37 -0.67 3.37 -0.47 2.34 C-0.32 1.57 -0.16 0.79 0 0 Z " fill="#FCFDFF" transform="translate(1015,119)"/>
<path d="M0 0 C0.99 0.33 1.98 0.66 3 1 C1.02 1.33 -0.96 1.66 -3 2 C-2.01 1.34 -1.02 0.68 0 0 Z " fill="#FCFDFF" transform="translate(925,1276)"/>
<path d="M0 0 C0.33 1.32 0.66 2.64 1 4 C0.01 4.5 0.01 4.5 -1 5 C-0.67 3.35 -0.34 1.7 0 0 Z " fill="#FCFDFF" transform="translate(1012,134)"/>
<path d="M0 0 C3 1 3 1 3 1 Z " fill="#FCFDFF" transform="translate(928,1275)"/>
<path d="M0 0 C2 1 2 1 2 1 Z " fill="#FCFDFF" transform="translate(933,1273)"/>
<path d="M0 0 C2 1 2 1 2 1 Z " fill="#FCFDFF" transform="translate(939,1270)"/>
<path d="" fill="#FCFDFF" transform="translate(0,0)"/>
<path d="" fill="#FCFDFF" transform="translate(0,0)"/>
<path d="" fill="#FCFDFF" transform="translate(0,0)"/>
<path d="" fill="#FCFDFF" transform="translate(0,0)"/>
<path d="" fill="#FCFDFF" transform="translate(0,0)"/>
<path d="" fill="#FCFDFF" transform="translate(0,0)"/>
<path d="" fill="#FCFDFF" transform="translate(0,0)"/>
<path d="" fill="#FCFDFF" transform="translate(0,0)"/>
<path d="" fill="#FCFDFF" transform="translate(0,0)"/>
<path d="" fill="#FCFDFF" transform="translate(0,0)"/>
<path d="" fill="#FCFDFF" transform="translate(0,0)"/>
<path d="" fill="#FCFDFF" transform="translate(0,0)"/>
<path d="" fill="#FCFDFF" transform="translate(0,0)"/>
<path d="" fill="#FCFDFF" transform="translate(0,0)"/>
<path d="" fill="#FCFDFF" transform="translate(0,0)"/>
<path d="" fill="#FCFDFF" transform="translate(0,0)"/>
<path d="" fill="#FCFDFF" transform="translate(0,0)"/>
<path d="" fill="#FCFDFF" transform="translate(0,0)"/>
<path d="" fill="#FCFDFF" transform="translate(0,0)"/>
<path d="" fill="#FCFDFF" transform="translate(0,0)"/>
<path d="" fill="#FCFDFF" transform="translate(0,0)"/>
<path d="" fill="#FCFDFF" transform="translate(0,0)"/>
<path d="" fill="#FCFDFF" transform="translate(0,0)"/>
<path d="" fill="#FCFDFF" transform="translate(0,0)"/>
<path d="" fill="#FCFDFF" transform="translate(0,0)"/>
<path d="" fill="#FCFDFF" transform="translate(0,0)"/>
<path d="" fill="#FCFDFF" transform="translate(0,0)"/>
<path d="" fill="#FCFDFF" transform="translate(0,0)"/>
<path d="" fill="#FCFDFF" transform="translate(0,0)"/>
<path d="" fill="#FCFDFF" transform="translate(0,0)"/>
<path d="" fill="#FCFDFF" transform="translate(0,0)"/>
<path d="" fill="#FCFDFF" transform="translate(0,0)"/>
<path d="" fill="#FCFDFF" transform="translate(0,0)"/>
<path d="" fill="#FCFDFF" transform="translate(0,0)"/>
<path d="" fill="#FCFDFF" transform="translate(0,0)"/>
<path d="" fill="#FCFDFF" transform="translate(0,0)"/>
<path d="" fill="#FCFDFF" transform="translate(0,0)"/>
<path d="" fill="#FCFDFF" transform="translate(0,0)"/>
<path d="" fill="#FCFDFF" transform="translate(0,0)"/>
<path d="" fill="#FCFDFF" transform="translate(0,0)"/>
<path d="" fill="#FCFDFF" transform="translate(0,0)"/>
<path d="" fill="#FCFDFF" transform="translate(0,0)"/>
<path d="" fill="#FCFDFF" transform="translate(0,0)"/>
<path d="" fill="#FCFDFF" transform="translate(0,0)"/>
<path d="" fill="#FCFDFF" transform="translate(0,0)"/>
<path d="" fill="#FCFDFF" transform="translate(0,0)"/>
<path d="" fill="#FCFDFF" transform="translate(0,0)"/>
<path d="" fill="#FCFDFF" transform="translate(0,0)"/>
<path d="" fill="#FCFDFF" transform="translate(0,0)"/>
<path d="" fill="#FCFDFF" transform="translate(0,0)"/>
<path d="" fill="#FCFDFF" transform="translate(0,0)"/>
<path d="" fill="#FCFDFF" transform="translate(0,0)"/>
<path d="" fill="#FCFDFF" transform="translate(0,0)"/>
<path d="" fill="#FCFDFF" transform="translate(0,0)"/>
<path d="" fill="#FCFDFF" transform="translate(0,0)"/>
<path d="" fill="#FCFDFF" transform="translate(0,0)"/>
<path d="" fill="#FCFDFF" transform="translate(0,0)"/>
<path d="" fill="#FCFDFF" transform="translate(0,0)"/>
<path d="" fill="#FCFDFF" transform="translate(0,0)"/>
<path d="" fill="#FCFDFF" transform="translate(0,0)"/>
<path d="" fill="#FCFDFF" transform="translate(0,0)"/>
<path d="" fill="#FCFDFF" transform="translate(0,0)"/>
<path d="" fill="#FCFDFF" transform="translate(0,0)"/>
<path d="" fill="#FCFDFF" transform="translate(0,0)"/>
<path d="" fill="#FCFDFF" transform="translate(0,0)"/>
<path d="" fill="#FCFDFF" transform="translate(0,0)"/>
<path d="" fill="#FCFDFF" transform="translate(0,0)"/>
<path d="" fill="#FCFDFF" transform="translate(0,0)"/>
<path d="" fill="#FCFDFF" transform="translate(0,0)"/>
<path d="" fill="#FCFDFF" transform="translate(0,0)"/>
<path d="" fill="#FCFDFF" transform="translate(0,0)"/>
<path d="" fill="#FCFDFF" transform="translate(0,0)"/>
<path d="" fill="#FCFDFF" transform="translate(0,0)"/>
<path d="" fill="#FCFDFF" transform="translate(0,0)"/>
<path d="" fill="#FCFDFF" transform="translate(0,0)"/>
<path d="" fill="#FCFDFF" transform="translate(0,0)"/>
<path d="" fill="#FCFDFF" transform="translate(0,0)"/>
<path d="" fill="#FCFDFF" transform="translate(0,0)"/>
<path d="" fill="#FCFDFF" transform="translate(0,0)"/>
<path d="" fill="#FCFDFF" transform="translate(0,0)"/>
<path d="" fill="#FCFDFF" transform="translate(0,0)"/>
<path d="" fill="#FCFDFF" transform="translate(0,0)"/>
<path d="" fill="#FCFDFF" transform="translate(0,0)"/>
<path d="" fill="#FCFDFF" transform="translate(0,0)"/>
<path d="" fill="#FCFDFF" transform="translate(0,0)"/>
<path d="" fill="#FCFDFF" transform="translate(0,0)"/>
<path d="" fill="#FCFDFF" transform="translate(0,0)"/>
<path d="" fill="#FCFDFF" transform="translate(0,0)"/>
<path d="" fill="#FCFDFF" transform="translate(0,0)"/>
<path d="" fill="#FCFDFF" transform="translate(0,0)"/>
<path d="" fill="#FCFDFF" transform="translate(0,0)"/>
<path d="" fill="#FCFDFF" transform="translate(0,0)"/>
<path d="" fill="#FCFDFF" transform="translate(0,0)"/>
<path d="" fill="#FCFDFF" transform="translate(0,0)"/>
<path d="" fill="#FCFDFF" transform="translate(0,0)"/>
<path d="" fill="#FCFDFF" transform="translate(0,0)"/>
<path d="" fill="#FCFDFF" transform="translate(0,0)"/>
<path d="" fill="#FCFDFF" transform="translate(0,0)"/>
<path d="" fill="#FCFDFF" transform="translate(0,0)"/>
<path d="" fill="#FCFDFF" transform="translate(0,0)"/>
<path d="" fill="#FCFDFF" transform="translate(0,0)"/>
<path d="" fill="#FCFDFF" transform="translate(0,0)"/>
<path d="" fill="#FCFDFF" transform="translate(0,0)"/>
<path d="" fill="#FCFDFF" transform="translate(0,0)"/>
<path d="" fill="#FCFDFF" transform="translate(0,0)"/>
<path d="" fill="#FCFDFF" transform="translate(0,0)"/>
<path d="" fill="#FCFDFF" transform="translate(0,0)"/>
<path d="" fill="#FCFDFF" transform="translate(0,0)"/>
<path d="" fill="#FCFDFF" transform="translate(0,0)"/>
<path d="" fill="#FCFDFF" transform="translate(0,0)"/>
<path d="" fill="#FCFDFF" transform="translate(0,0)"/>
<path d="" fill="#FCFDFF" transform="translate(0,0)"/>
<path d="" fill="#FCFDFF" transform="translate(0,0)"/>
<path d="" fill="#FCFDFF" transform="translate(0,0)"/>
<path d="" fill="#FCFDFF" transform="translate(0,0)"/>
<path d="" fill="#FCFDFF" transform="translate(0,0)"/>
<path d="" fill="#FCFDFF" transform="translate(0,0)"/>
<path d="" fill="#FCFDFF" transform="translate(0,0)"/>
<path d="" fill="#FCFDFF" transform="translate(0,0)"/>
<path d="" fill="#FCFDFF" transform="translate(0,0)"/>
<path d="" fill="#FCFDFF" transform="translate(0,0)"/>
<path d="" fill="#FCFDFF" transform="translate(0,0)"/>
<path d="" fill="#FCFDFF" transform="translate(0,0)"/>
<path d="" fill="#FCFDFF" transform="translate(0,0)"/>
<path d="" fill="#FCFDFF" transform="translate(0,0)"/>
<path d="" fill="#FCFDFF" transform="translate(0,0)"/>
<path d="" fill="#FCFDFF" transform="translate(0,0)"/>
<path d="" fill="#FCFDFF" transform="translate(0,0)"/>
<path d="" fill="#FCFDFF" transform="translate(0,0)"/>
<path d="" fill="#FCFDFF" transform="translate(0,0)"/>
<path d="" fill="#FCFDFF" transform="translate(0,0)"/>
<path d="" fill="#FCFDFF" transform="translate(0,0)"/>
<path d="" fill="#FCFDFF" transform="translate(0,0)"/>
<path d="" fill="#FCFDFF" transform="translate(0,0)"/>
<path d="" fill="#FCFDFF" transform="translate(0,0)"/>
<path d="" fill="#FCFDFF" transform="translate(0,0)"/>
<path d="" fill="#FCFDFF" transform="translate(0,0)"/>
<path d="" fill="#FCFDFF" transform="translate(0,0)"/>
<path d="" fill="#FCFDFF" transform="translate(0,0)"/>
<path d="" fill="#FCFDFF" transform="translate(0,0)"/>
<path d="" fill="#FCFDFF" transform="translate(0,0)"/>
<path d="" fill="#FCFDFF" transform="translate(0,0)"/>
<path d="" fill="#FCFDFF" transform="translate(0,0)"/>
<path d="" fill="#FCFDFF" transform="translate(0,0)"/>
<path d="" fill="#FCFDFF" transform="translate(0,0)"/>
<path d="" fill="#FCFDFF" transform="translate(0,0)"/>
<path d="" fill="#FCFDFF" transform="translate(0,0)"/>
<path d="" fill="#FCFDFF" transform="translate(0,0)"/>
<path d="" fill="#FCFDFF" transform="translate(0,0)"/>
<path d="" fill="#FCFDFF" transform="translate(0,0)"/>
<path d="" fill="#FCFDFF" transform="translate(0,0)"/>
<path d="" fill="#FCFDFF" transform="translate(0,0)"/>
<path d="" fill="#FCFDFF" transform="translate(0,0)"/>
<path d="" fill="#FCFDFF" transform="translate(0,0)"/>
<path d="" fill="#FCFDFF" transform="translate(0,0)"/>
<path d="" fill="#FCFDFF" transform="translate(0,0)"/>
<path d="" fill="#FCFDFF" transform="translate(0,0)"/>
<path d="" fill="#FCFDFF" transform="translate(0,0)"/>
<path d="" fill="#FCFDFF" transform="translate(0,0)"/>
<path d="" fill="#FCFDFF" transform="translate(0,0)"/>
<path d="" fill="#FCFDFF" transform="translate(0,0)"/>
<path d="" fill="#FCFDFF" transform="translate(0,0)"/>
<path d="" fill="#FCFDFF" transform="translate(0,0)"/>
<path d="" fill="#FCFDFF" transform="translate(0,0)"/>
<path d="" fill="#FCFDFF" transform="translate(0,0)"/>
<path d="" fill="#FCFDFF" transform="translate(0,0)"/>
<path d="" fill="#FCFDFF" transform="translate(0,0)"/>
<path d="" fill="#FCFDFF" transform="translate(0,0)"/>
<path d="" fill="#FCFDFF" transform="translate(0,0)"/>
<path d="" fill="#FCFDFF" transform="translate(0,0)"/>
<path d="" fill="#FCFDFF" transform="translate(0,0)"/>
<path d="" fill="#FCFDFF" transform="translate(0,0)"/>
<path d="" fill="#FCFDFF" transform="translate(0,0)"/>
<path d="" fill="#FCFDFF" transform="translate(0,0)"/>
<path d="" fill="#FCFDFF" transform="translate(0,0)"/>
<path d="" fill="#FCFDFF" transform="translate(0,0)"/>
<path d="" fill="#FCFDFF" transform="translate(0,0)"/>
<path d="" fill="#FCFDFF" transform="translate(0,0)"/>
<path d="" fill="#FCFDFF" transform="translate(0,0)"/>
<path d="" fill="#FCFDFF" transform="translate(0,0)"/>
<path d="" fill="#FCFDFF" transform="translate(0,0)"/>
<path d="" fill="#FCFDFF" transform="translate(0,0)"/>
<path d="" fill="#FCFDFF" transform="translate(0,0)"/>
<path d="" fill="#FCFDFF" transform="translate(0,0)"/>
<path d="" fill="#FCFDFF" transform="translate(0,0)"/>
<path d="" fill="#FCFDFF" transform="translate(0,0)"/>
<path d="" fill="#FCFDFF" transform="translate(0,0)"/>
<path d="" fill="#FCFDFF" transform="translate(0,0)"/>
<path d="" fill="#FCFDFF" transform="translate(0,0)"/>
<path d="" fill="#FCFDFF" transform="translate(0,0)"/>
<path d="" fill="#FCFDFF" transform="translate(0,0)"/>
<path d="" fill="#FCFDFF" transform="translate(0,0)"/>
<path d="" fill="#FCFDFF" transform="translate(0,0)"/>
<path d="" fill="#FCFDFF" transform="translate(0,0)"/>
<path d="" fill="#FCFDFF" transform="translate(0,0)"/>
<path d="" fill="#FCFDFF" transform="translate(0,0)"/>
<path d="" fill="#FCFDFF" transform="translate(0,0)"/>
<path d="" fill="#FCFDFF" transform="translate(0,0)"/>
<path d="" fill="#FCFDFF" transform="translate(0,0)"/>
<path d="" fill="#FCFDFF" transform="translate(0,0)"/>
<path d="" fill="#FCFDFF" transform="translate(0,0)"/>
<path d="" fill="#FCFDFF" transform="translate(0,0)"/>
<path d="" fill="#FCFDFF" transform="translate(0,0)"/>
<path d="" fill="#FCFDFF" transform="translate(0,0)"/>
<path d="" fill="#FCFDFF" transform="translate(0,0)"/>
<path d="" fill="#FCFDFF" transform="translate(0,0)"/>
<path d="" fill="#FCFDFF" transform="translate(0,0)"/>
<path d="" fill="#FCFDFF" transform="translate(0,0)"/>
<path d="" fill="#FCFDFF" transform="translate(0,0)"/>
<path d="" fill="#FCFDFF" transform="translate(0,0)"/>
<path d="" fill="#FCFDFF" transform="translate(0,0)"/>
<path d="" fill="#FCFDFF" transform="translate(0,0)"/>
<path d="" fill="#FCFDFF" transform="translate(0,0)"/>
<path d="" fill="#FCFDFF" transform="translate(0,0)"/>
<path d="" fill="#FCFDFF" transform="translate(0,0)"/>
<path d="" fill="#FCFDFF" transform="translate(0,0)"/>
<path d="" fill="#FCFDFF" transform="translate(0,0)"/>
<path d="" fill="#FCFDFF" transform="translate(0,0)"/>
<path d="" fill="#FCFDFF" transform="translate(0,0)"/>
<path d="" fill="#FCFDFF" transform="translate(0,0)"/>
<path d="" fill="#FCFDFF" transform="translate(0,0)"/>
<path d="" fill="#FCFDFF" transform="translate(0,0)"/>
<path d="" fill="#FCFDFF" transform="translate(0,0)"/>
<path d="" fill="#FCFDFF" transform="translate(0,0)"/>
<path d="" fill="#FCFDFF" transform="translate(0,0)"/>
<path d="" fill="#FCFDFF" transform="translate(0,0)"/>
<path d="" fill="#FCFDFF" transform="translate(0,0)"/>
<path d="" fill="#FCFDFF" transform="translate(0,0)"/>
<path d="" fill="#FCFDFF" transform="translate(0,0)"/>
<path d="" fill="#FCFDFF" transform="translate(0,0)"/>
<path d="" fill="#FCFDFF" transform="translate(0,0)"/>
<path d="" fill="#FCFDFF" transform="translate(0,0)"/>
<path d="" fill="#FCFDFF" transform="translate(0,0)"/>
<path d="" fill="#FCFDFF" transform="translate(0,0)"/>
<path d="" fill="#FCFDFF" transform="translate(0,0)"/>
<path d="" fill="#FCFDFF" transform="translate(0,0)"/>
<path d="" fill="#FCFDFF" transform="translate(0,0)"/>
<path d="" fill="#FCFDFF" transform="translate(0,0)"/>
<path d="" fill="#FCFDFF" transform="translate(0,0)"/>
<path d="" fill="#FCFDFF" transform="translate(0,0)"/>
<path d="" fill="#FCFDFF" transform="translate(0,0)"/>
<path d="" fill="#FCFDFF" transform="translate(0,0)"/>
<path d="" fill="#FCFDFF" transform="translate(0,0)"/>
<path d="" fill="#FCFDFF" transform="translate(0,0)"/>
<path d="" fill="#FCFDFF" transform="translate(0,0)"/>
<path d="" fill="#FCFDFF" transform="translate(0,0)"/>
<path d="" fill="#FCFDFF" transform="translate(0,0)"/>
<path d="" fill="#FCFDFF" transform="translate(0,0)"/>
<path d="" fill="#FCFDFF" transform="translate(0,0)"/>
<path d="" fill="#FCFDFF" transform="translate(0,0)"/>
<path d="" fill="#FCFDFF" transform="translate(0,0)"/>
<path d="" fill="#FCFDFF" transform="translate(0,0)"/>
<path d="" fill="#FCFDFF" transform="translate(0,0)"/>
<path d="" fill="#FCFDFF" transform="translate(0,0)"/>
<path d="" fill="#FCFDFF" transform="translate(0,0)"/>
<path d="" fill="#FCFDFF" transform="translate(0,0)"/>
<path d="" fill="#FCFDFF" transform="translate(0,0)"/>
<path d="" fill="#FCFDFF" transform="translate(0,0)"/>
<path d="" fill="#FCFDFF" transform="translate(0,0)"/>
<path d="" fill="#FCFDFF" transform="translate(0,0)"/>
<path d="" fill="#FCFDFF" transform="translate(0,0)"/>
<path d="" fill="#FCFDFF" transform="translate(0,0)"/>
<path d="" fill="#FCFDFF" transform="translate(0,0)"/>
<path d="" fill="#FCFDFF" transform="translate(0,0)"/>
<path d="" fill="#FCFDFF" transform="translate(0,0)"/>
<path d="" fill="#FCFDFF" transform="translate(0,0)"/>
<path d="" fill="#FCFDFF" transform="translate(0,0)"/>
<path d="" fill="#FCFDFF" transform="translate(0,0)"/>
<path d="" fill="#FCFDFF" transform="translate(0,0)"/>
<path d="" fill="#FCFDFF" transform="translate(0,0)"/>
<path d="" fill="#FCFDFF" transform="translate(0,0)"/>
<path d="" fill="#FCFDFF" transform="translate(0,0)"/>
<path d="" fill="#FCFDFF" transform="translate(0,0)"/>
<path d="" fill="#FCFDFF" transform="translate(0,0)"/>
<path d="" fill="#FCFDFF" transform="translate(0,0)"/>
<path d="" fill="#FCFDFF" transform="translate(0,0)"/>
<path d="" fill="#FCFDFF" transform="translate(0,0)"/>
<path d="" fill="#FCFDFF" transform="translate(0,0)"/>
<path d="" fill="#FCFDFF" transform="translate(0,0)"/>
<path d="" fill="#FCFDFF" transform="translate(0,0)"/>
<path d="" fill="#FCFDFF" transform="translate(0,0)"/>
<path d="" fill="#FCFDFF" transform="translate(0,0)"/>
<path d="" fill="#FCFDFF" transform="translate(0,0)"/>
<path d="" fill="#FCFDFF" transform="translate(0,0)"/>
<path d="" fill="#FCFDFF" transform="translate(0,0)"/>
<path d="" fill="#FCFDFF" transform="translate(0,0)"/>
<path d="" fill="#FCFDFF" transform="translate(0,0)"/>
<path d="" fill="#FCFDFF" transform="translate(0,0)"/>
<path d="" fill="#FCFDFF" transform="translate(0,0)"/>
<path d="" fill="#FCFDFF" transform="translate(0,0)"/>
<path d="" fill="#FCFDFF" transform="translate(0,0)"/>
<path d="" fill="#FCFDFF" transform="translate(0,0)"/>
<path d="" fill="#FCFDFF" transform="translate(0,0)"/>
<path d="" fill="#FCFDFF" transform="translate(0,0)"/>
<path d="" fill="#FCFDFF" transform="translate(0,0)"/>
<path d="" fill="#FCFDFF" transform="translate(0,0)"/>
<path d="" fill="#FCFDFF" transform="translate(0,0)"/>
<path d="" fill="#FCFDFF" transform="translate(0,0)"/>
<path d="" fill="#FCFDFF" transform="translate(0,0)"/>
<path d="" fill="#FCFDFF" transform="translate(0,0)"/>
<path d="" fill="#FCFDFF" transform="translate(0,0)"/>
<path d="" fill="#FCFDFF" transform="translate(0,0)"/>
<path d="" fill="#FCFDFF" transform="translate(0,0)"/>
<path d="" fill="#FCFDFF" transform="translate(0,0)"/>
<path d="" fill="#FCFDFF" transform="translate(0,0)"/>
<path d="" fill="#FCFDFF" transform="translate(0,0)"/>
<path d="" fill="#FCFDFF" transform="translate(0,0)"/>
<path d="" fill="#FCFDFF" transform="translate(0,0)"/>
<path d="" fill="#FCFDFF" transform="translate(0,0)"/>
<path d="" fill="#FCFDFF" transform="translate(0,0)"/>
<path d="" fill="#FCFDFF" transform="translate(0,0)"/>
<path d="" fill="#FCFDFF" transform="translate(0,0)"/>
<path d="" fill="#FCFDFF" transform="translate(0,0)"/>
<path d="" fill="#FCFDFF" transform="translate(0,0)"/>
<path d="" fill="#FCFDFF" transform="translate(0,0)"/>
<path d="" fill="#FCFDFF" transform="translate(0,0)"/>
<path d="" fill="#FCFDFF" transform="translate(0,0)"/>
<path d="" fill="#FCFDFF" transform="translate(0,0)"/>
<path d="" fill="#FCFDFF" transform="translate(0,0)"/>
<path d="" fill="#FCFDFF" transform="translate(0,0)"/>
<path d="" fill="#FCFDFF" transform="translate(0,0)"/>
<path d="" fill="#FCFDFF" transform="translate(0,0)"/>
<path d="" fill="#FCFDFF" transform="translate(0,0)"/>
<path d="" fill="#FCFDFF" transform="translate(0,0)"/>
<path d="" fill="#FCFDFF" transform="translate(0,0)"/>
<path d="" fill="#FCFDFF" transform="translate(0,0)"/>
<path d="" fill="#FCFDFF" transform="translate(0,0)"/>
<path d="" fill="#FCFDFF" transform="translate(0,0)"/>
<path d="" fill="#FCFDFF" transform="translate(0,0)"/>
<path d="" fill="#FCFDFF" transform="translate(0,0)"/>
<path d="" fill="#FCFDFF" transform="translate(0,0)"/>
<path d="" fill="#FCFDFF" transform="translate(0,0)"/>
<path d="" fill="#FCFDFF" transform="translate(0,0)"/>
<path d="" fill="#FCFDFF" transform="translate(0,0)"/>
<path d="" fill="#FCFDFF" transform="translate(0,0)"/>
<path d="" fill="#FCFDFF" transform="translate(0,0)"/>
<path d="" fill="#FCFDFF" transform="translate(0,0)"/>
<path d="" fill="#FCFDFF" transform="translate(0,0)"/>
<path d="" fill="#FCFDFF" transform="translate(0,0)"/>
<path d="" fill="#FCFDFF" transform="translate(0,0)"/>
<path d="" fill="#FCFDFF" transform="translate(0,0)"/>
<path d="" fill="#FCFDFF" transform="translate(0,0)"/>
<path d="" fill="#FCFDFF" transform="translate(0,0)"/>
<path d="" fill="#FCFDFF" transform="translate(0,0)"/>
<path d="" fill="#FCFDFF" transform="translate(0,0)"/>
<path d="" fill="#FCFDFF" transform="translate(0,0)"/>
<path d="" fill="#FCFDFF" transform="translate(0,0)"/>
<path d="" fill="#FCFDFF" transform="translate(0,0)"/>
<path d="" fill="#FCFDFF" transform="translate(0,0)"/>
<path d="" fill="#FCFDFF" transform="translate(0,0)"/>
<path d="" fill="#FCFDFF" transform="translate(0,0)"/>
<path d="" fill="#FCFDFF" transform="translate(0,0)"/>
<path d="" fill="#FCFDFF" transform="translate(0,0)"/>
<path d="" fill="#FCFDFF" transform="translate(0,0)"/>
<path d="" fill="#FCFDFF" transform="translate(0,0)"/>
<path d="" fill="#FCFDFF" transform="translate(0,0)"/>
<path d="" fill="#FCFDFF" transform="translate(0,0)"/>
<path d="" fill="#FCFDFF" transform="translate(0,0)"/>
<path d="" fill="#FCFDFF" transform="translate(0,0)"/>
<path d="" fill="#FCFDFF" transform="translate(0,0)"/>
<path d="" fill="#FCFDFF" transform="translate(0,0)"/>
<path d="" fill="#FCFDFF" transform="translate(0,0)"/>
<path d="" fill="#FCFDFF" transform="translate(0,0)"/>
<path d="" fill="#FCFDFF" transform="translate(0,0)"/>
<path d="" fill="#FCFDFF" transform="translate(0,0)"/>
<path d="" fill="#FCFDFF" transform="translate(0,0)"/>
<path d="" fill="#FCFDFF" transform="translate(0,0)"/>
<path d="" fill="#FCFDFF" transform="translate(0,0)"/>
<path d="" fill="#FCFDFF" transform="translate(0,0)"/>
<path d="" fill="#FCFDFF" transform="translate(0,0)"/>
<path d="" fill="#FCFDFF" transform="translate(0,0)"/>
<path d="" fill="#FCFDFF" transform="translate(0,0)"/>
<path d="" fill="#FCFDFF" transform="translate(0,0)"/>
<path d="" fill="#FCFDFF" transform="translate(0,0)"/>
<path d="" fill="#FCFDFF" transform="translate(0,0)"/>
<path d="" fill="#FCFDFF" transform="translate(0,0)"/>
<path d="" fill="#FCFDFF" transform="translate(0,0)"/>
<path d="" fill="#FCFDFF" transform="translate(0,0)"/>
<path d="" fill="#FCFDFF" transform="translate(0,0)"/>
<path d="" fill="#FCFDFF" transform="translate(0,0)"/>
<path d="" fill="#FCFDFF" transform="translate(0,0)"/>
<path d="" fill="#FCFDFF" transform="translate(0,0)"/>
<path d="" fill="#FCFDFF" transform="translate(0,0)"/>
<path d="" fill="#FCFDFF" transform="translate(0,0)"/>
<path d="" fill="#FCFDFF" transform="translate(0,0)"/>
<path d="" fill="#FCFDFF" transform="translate(0,0)"/>
<path d="" fill="#FCFDFF" transform="translate(0,0)"/>
<path d="" fill="#FCFDFF" transform="translate(0,0)"/>
<path d="" fill="#FCFDFF" transform="translate(0,0)"/>
<path d="" fill="#FCFDFF" transform="translate(0,0)"/>
<path d="" fill="#FCFDFF" transform="translate(0,0)"/>
<path d="" fill="#FCFDFF" transform="translate(0,0)"/>
<path d="" fill="#FCFDFF" transform="translate(0,0)"/>
<path d="" fill="#FCFDFF" transform="translate(0,0)"/>
<path d="" fill="#FCFDFF" transform="translate(0,0)"/>
<path d="" fill="#FCFDFF" transform="translate(0,0)"/>
<path d="" fill="#FCFDFF" transform="translate(0,0)"/>
<path d="" fill="#FCFDFF" transform="translate(0,0)"/>
<path d="" fill="#FCFDFF" transform="translate(0,0)"/>
<path d="" fill="#FCFDFF" transform="translate(0,0)"/>
<path d="" fill="#FCFDFF" transform="translate(0,0)"/>
<path d="" fill="#FCFDFF" transform="translate(0,0)"/>
<path d="" fill="#FCFDFF" transform="translate(0,0)"/>
<path d="" fill="#FCFDFF" transform="translate(0,0)"/>
<path d="" fill="#FCFDFF" transform="translate(0,0)"/>
<path d="" fill="#FCFDFF" transform="translate(0,0)"/>
<path d="" fill="#FCFDFF" transform="translate(0,0)"/>
<path d="" fill="#FCFDFF" transform="translate(0,0)"/>
<path d="" fill="#FCFDFF" transform="translate(0,0)"/>
<path d="" fill="#FCFDFF" transform="translate(0,0)"/>
<path d="" fill="#FCFDFF" transform="translate(0,0)"/>
<path d="" fill="#FCFDFF" transform="translate(0,0)"/>
<path d="" fill="#FCFDFF" transform="translate(0,0)"/>
<path d="" fill="#FCFDFF" transform="translate(0,0)"/>
<path d="" fill="#FCFDFF" transform="translate(0,0)"/>
<path d="" fill="#FCFDFF" transform="translate(0,0)"/>
<path d="" fill="#FCFDFF" transform="translate(0,0)"/>
<path d="" fill="#FCFDFF" transform="translate(0,0)"/>
<path d="" fill="#FCFDFF" transform="translate(0,0)"/>
<path d="" fill="#FCFDFF" transform="translate(0,0)"/>
<path d="" fill="#FCFDFF" transform="translate(0,0)"/>
<path d="" fill="#FCFDFF" transform="translate(0,0)"/>
<path d="" fill="#FCFDFF" transform="translate(0,0)"/>
<path d="" fill="#FCFDFF" transform="translate(0,0)"/>
<path d="" fill="#FCFDFF" transform="translate(0,0)"/>
<path d="" fill="#FCFDFF" transform="translate(0,0)"/>
<path d="" fill="#FCFDFF" transform="translate(0,0)"/>
<path d="" fill="#FCFDFF" transform="translate(0,0)"/>
<path d="" fill="#FCFDFF" transform="translate(0,0)"/>
<path d="" fill="#FCFDFF" transform="translate(0,0)"/>
<path d="" fill="#FCFDFF" transform="translate(0,0)"/>
<path d="" fill="#FCFDFF" transform="translate(0,0)"/>
<path d="" fill="#FCFDFF" transform="translate(0,0)"/>
<path d="" fill="#FCFDFF" transform="translate(0,0)"/>
<path d="" fill="#FCFDFF" transform="translate(0,0)"/>
<path d="" fill="#FCFDFF" transform="translate(0,0)"/>
<path d="" fill="#FCFDFF" transform="translate(0,0)"/>
<path d="" fill="#FCFDFF" transform="translate(0,0)"/>
<path d="" fill="#FCFDFF" transform="translate(0,0)"/>
<path d="" fill="#FCFDFF" transform="translate(0,0)"/>
<path d="" fill="#FCFDFF" transform="translate(0,0)"/>
<path d="" fill="#FCFDFF" transform="translate(0,0)"/>
<path d="" fill="#FCFDFF" transform="translate(0,0)"/>
<path d="" fill="#FCFDFF" transform="translate(0,0)"/>
<path d="" fill="#FCFDFF" transform="translate(0,0)"/>
<path d="" fill="#FCFDFF" transform="translate(0,0)"/>
<path d="" fill="#FCFDFF" transform="translate(0,0)"/>
<path d="" fill="#FCFDFF" transform="translate(0,0)"/>
<path d="" fill="#FCFDFF" transform="translate(0,0)"/>
<path d="" fill="#FCFDFF" transform="translate(0,0)"/>
<path d="" fill="#FCFDFF" transform="translate(0,0)"/>
<path d="" fill="#FCFDFF" transform="translate(0,0)"/>
<path d="" fill="#FCFDFF" transform="translate(0,0)"/>
<path d="" fill="#FCFDFF" transform="translate(0,0)"/>
<path d="" fill="#FCFDFF" transform="translate(0,0)"/>
<path d="" fill="#FCFDFF" transform="translate(0,0)"/>
<path d="" fill="#FCFDFF" transform="translate(0,0)"/>
<path d="" fill="#FCFDFF" transform="translate(0,0)"/>
<path d="" fill="#FCFDFF" transform="translate(0,0)"/>
<path d="" fill="#FCFDFF" transform="translate(0,0)"/>
<path d="" fill="#FCFDFF" transform="translate(0,0)"/>
<path d="" fill="#FCFDFF" transform="translate(0,0)"/>
<path d="" fill="#FCFDFF" transform="translate(0,0)"/>
<path d="" fill="#FCFDFF" transform="translate(0,0)"/>
<path d="" fill="#FCFDFF" transform="translate(0,0)"/>
<path d="" fill="#FCFDFF" transform="translate(0,0)"/>
<path d="" fill="#FCFDFF" transform="translate(0,0)"/>
<path d="" fill="#FCFDFF" transform="translate(0,0)"/>
<path d="" fill="#FCFDFF" transform="translate(0,0)"/>
<path d="" fill="#FCFDFF" transform="translate(0,0)"/>
<path d="" fill="#FCFDFF" transform="translate(0,0)"/>
<path d="" fill="#FCFDFF" transform="translate(0,0)"/>
<path d="" fill="#FCFDFF" transform="translate(0,0)"/>
<path d="" fill="#FCFDFF" transform="translate(0,0)"/>
<path d="" fill="#FCFDFF" transform="translate(0,0)"/>
<path d="" fill="#FCFDFF" transform="translate(0,0)"/>
<path d="" fill="#FCFDFF" transform="translate(0,0)"/>
<path d="" fill="#FCFDFF" transform="translate(0,0)"/>
<path d="" fill="#FCFDFF" transform="translate(0,0)"/>
<path d="" fill="#FCFDFF" transform="translate(0,0)"/>
<path d="" fill="#FCFDFF" transform="translate(0,0)"/>
<path d="" fill="#FCFDFF" transform="translate(0,0)"/>
<path d="" fill="#FCFDFF" transform="translate(0,0)"/>
<path d="" fill="#FCFDFF" transform="translate(0,0)"/>
<path d="" fill="#FCFDFF" transform="translate(0,0)"/>
<path d="" fill="#FCFDFF" transform="translate(0,0)"/>
<path d="" fill="#FCFDFF" transform="translate(0,0)"/>
<path d="" fill="#FCFDFF" transform="translate(0,0)"/>
<path d="" fill="#FCFDFF" transform="translate(0,0)"/>
<path d="" fill="#FCFDFF" transform="translate(0,0)"/>
<path d="" fill="#FCFDFF" transform="translate(0,0)"/>
<path d="" fill="#FCFDFF" transform="translate(0,0)"/>
<path d="" fill="#FCFDFF" transform="translate(0,0)"/>
<path d="" fill="#FCFDFF" transform="translate(0,0)"/>
<path d="" fill="#FCFDFF" transform="translate(0,0)"/>
<path d="" fill="#FCFDFF" transform="translate(0,0)"/>
<path d="" fill="#FCFDFF" transform="translate(0,0)"/>
<path d="" fill="#FCFDFF" transform="translate(0,0)"/>
<path d="" fill="#FCFDFF" transform="translate(0,0)"/>
<path d="" fill="#FCFDFF" transform="translate(0,0)"/>
<path d="" fill="#FCFDFF" transform="translate(0,0)"/>
<path d="" fill="#FCFDFF" transform="translate(0,0)"/>
<path d="" fill="#FCFDFF" transform="translate(0,0)"/>
<path d="" fill="#FCFDFF" transform="translate(0,0)"/>
<path d="" fill="#FCFDFF" transform="translate(0,0)"/>
<path d="" fill="#FCFDFF" transform="translate(0,0)"/>
<path d="" fill="#FCFDFF" transform="translate(0,0)"/>
<path d="" fill="#FCFDFF" transform="translate(0,0)"/>
<path d="" fill="#FCFDFF" transform="translate(0,0)"/>
<path d="" fill="#FCFDFF" transform="translate(0,0)"/>
<path d="" fill="#FCFDFF" transform="translate(0,0)"/>
<path d="" fill="#FCFDFF" transform="translate(0,0)"/>
<path d="" fill="#FCFDFF" transform="translate(0,0)"/>
<path d="" fill="#FCFDFF" transform="translate(0,0)"/>
<path d="" fill="#FCFDFF" transform="translate(0,0)"/>
<path d="" fill="#FCFDFF" transform="translate(0,0)"/>
<path d="" fill="#FCFDFF" transform="translate(0,0)"/>
<path d="" fill="#FCFDFF" transform="translate(0,0)"/>
<path d="" fill="#FCFDFF" transform="translate(0,0)"/>
<path d="" fill="#FCFDFF" transform="translate(0,0)"/>
<path d="" fill="#FCFDFF" transform="translate(0,0)"/>
<path d="" fill="#FCFDFF" transform="translate(0,0)"/>
<path d="" fill="#FCFDFF" transform="translate(0,0)"/>
<path d="" fill="#FCFDFF" transform="translate(0,0)"/>
<path d="" fill="#FCFDFF" transform="translate(0,0)"/>
<path d="" fill="#FCFDFF" transform="translate(0,0)"/>
<path d="" fill="#FCFDFF" transform="translate(0,0)"/>
<path d="" fill="#FCFDFF" transform="translate(0,0)"/>
<path d="" fill="#FCFDFF" transform="translate(0,0)"/>
<path d="" fill="#FCFDFF" transform="translate(0,0)"/>
<path d="" fill="#FCFDFF" transform="translate(0,0)"/>
<path d="" fill="#FCFDFF" transform="translate(0,0)"/>
<path d="" fill="#FCFDFF" transform="translate(0,0)"/>
<path d="" fill="#FCFDFF" transform="translate(0,0)"/>
<path d="" fill="#FCFDFF" transform="translate(0,0)"/>
<path d="" fill="#FCFDFF" transform="translate(0,0)"/>
<path d="" fill="#FCFDFF" transform="translate(0,0)"/>
<path d="" fill="#FCFDFF" transform="translate(0,0)"/>
<path d="" fill="#FCFDFF" transform="translate(0,0)"/>
<path d="" fill="#FCFDFF" transform="translate(0,0)"/>
<path d="" fill="#FCFDFF" transform="translate(0,0)"/>
<path d="" fill="#FCFDFF" transform="translate(0,0)"/>
<path d="" fill="#FCFDFF" transform="translate(0,0)"/>
<path d="" fill="#FCFDFF" transform="translate(0,0)"/>
<path d="" fill="#FCFDFF" transform="translate(0,0)"/>
<path d="" fill="#FCFDFF" transform="translate(0,0)"/>
<path d="" fill="#FCFDFF" transform="translate(0,0)"/>
<path d="" fill="#FCFDFF" transform="translate(0,0)"/>
<path d="" fill="#FCFDFF" transform="translate(0,0)"/>
<path d="" fill="#FCFDFF" transform="translate(0,0)"/>
<path d="" fill="#FCFDFF" transform="translate(0,0)"/>
<path d="" fill="#FCFDFF" transform="translate(0,0)"/>
<path d="" fill="#FCFDFF" transform="translate(0,0)"/>
<path d="" fill="#FCFDFF" transform="translate(0,0)"/>
<path d="" fill="#FCFDFF" transform="translate(0,0)"/>
<path d="" fill="#FCFDFF" transform="translate(0,0)"/>
<path d="" fill="#FCFDFF" transform="translate(0,0)"/>
<path d="" fill="#FCFDFF" transform="translate(0,0)"/>
<path d="" fill="#FCFDFF" transform="translate(0,0)"/>
<path d="" fill="#FCFDFF" transform="translate(0,0)"/>
<path d="" fill="#FCFDFF" transform="translate(0,0)"/>
<path d="" fill="#FCFDFF" transform="translate(0,0)"/>
<path d="" fill="#FCFDFF" transform="translate(0,0)"/>
<path d="" fill="#FCFDFF" transform="translate(0,0)"/>
<path d="" fill="#FCFDFF" transform="translate(0,0)"/>
<path d="" fill="#FCFDFF" transform="translate(0,0)"/>
<path d="" fill="#FCFDFF" transform="translate(0,0)"/>
<path d="" fill="#FCFDFF" transform="translate(0,0)"/>
<path d="" fill="#FCFDFF" transform="translate(0,0)"/>
<path d="" fill="#FCFDFF" transform="translate(0,0)"/>
<path d="" fill="#FCFDFF" transform="translate(0,0)"/>
<path d="" fill="#FCFDFF" transform="translate(0,0)"/>
<path d="" fill="#FCFDFF" transform="translate(0,0)"/>
<path d="" fill="#FCFDFF" transform="translate(0,0)"/>
<path d="" fill="#FCFDFF" transform="translate(0,0)"/>
<path d="" fill="#FCFDFF" transform="translate(0,0)"/>
<path d="" fill="#FCFDFF" transform="translate(0,0)"/>
<path d="" fill="#FCFDFF" transform="translate(0,0)"/>
<path d="" fill="#FCFDFF" transform="translate(0,0)"/>
<path d="" fill="#FCFDFF" transform="translate(0,0)"/>
<path d="" fill="#FCFDFF" transform="translate(0,0)"/>
<path d="" fill="#FCFDFF" transform="translate(0,0)"/>
<path d="" fill="#FCFDFF" transform="translate(0,0)"/>
<path d="" fill="#FCFDFF" transform="translate(0,0)"/>
<path d="" fill="#FCFDFF" transform="translate(0,0)"/>
<path d="" fill="#FCFDFF" transform="translate(0,0)"/>
<path d="" fill="#FCFDFF" transform="translate(0,0)"/>
<path d="" fill="#FCFDFF" transform="translate(0,0)"/>
<path d="" fill="#FCFDFF" transform="translate(0,0)"/>
<path d="" fill="#FCFDFF" transform="translate(0,0)"/>
<path d="" fill="#FCFDFF" transform="translate(0,0)"/>
<path d="" fill="#FCFDFF" transform="translate(0,0)"/>
<path d="" fill="#FCFDFF" transform="translate(0,0)"/>
<path d="" fill="#FCFDFF" transform="translate(0,0)"/>
<path d="" fill="#FCFDFF" transform="translate(0,0)"/>
<path d="" fill="#FCFDFF" transform="translate(0,0)"/>
<path d="" fill="#FCFDFF" transform="translate(0,0)"/>
<path d="" fill="#FCFDFF" transform="translate(0,0)"/>
<path d="" fill="#FCFDFF" transform="translate(0,0)"/>
<path d="" fill="#FCFDFF" transform="translate(0,0)"/>
<path d="" fill="#FCFDFF" transform="translate(0,0)"/>
<path d="" fill="#FCFDFF" transform="translate(0,0)"/>
<path d="" fill="#FCFDFF" transform="translate(0,0)"/>
<path d="" fill="#FCFDFF" transform="translate(0,0)"/>
<path d="" fill="#FCFDFF" transform="translate(0,0)"/>
<path d="" fill="#FCFDFF" transform="translate(0,0)"/>
<path d="" fill="#FCFDFF" transform="translate(0,0)"/>
<path d="" fill="#FCFDFF" transform="translate(0,0)"/>
<path d="" fill="#FCFDFF" transform="translate(0,0)"/>
<path d="" fill="#FCFDFF" transform="translate(0,0)"/>
<path d="" fill="#FCFDFF" transform="translate(0,0)"/>
<path d="" fill="#FCFDFF" transform="translate(0,0)"/>
<path d="" fill="#FCFDFF" transform="translate(0,0)"/>
<path d="" fill="#FCFDFF" transform="translate(0,0)"/>
<path d="" fill="#FCFDFF" transform="translate(0,0)"/>
<path d="" fill="#FCFDFF" transform="translate(0,0)"/>
<path d="" fill="#FCFDFF" transform="translate(0,0)"/>
<path d="" fill="#FCFDFF" transform="translate(0,0)"/>
<path d="" fill="#FCFDFF" transform="translate(0,0)"/>
</svg>
