<?xml version="1.0" encoding="UTF-8"?>
<!-- Generator: visioncortex VTracer 0.6.3 -->
<svg version="1.1" xmlns="http://www.w3.org/2000/svg" width="1280" height="1280">
<path d="M0 0 C0.73 0 1.45 0 2.2 0 C4.52 0.01 6.83 0.02 9.14 0.04 C10.71 0.04 12.28 0.04 13.86 0.05 C17.7 0.06 21.55 0.08 25.39 0.1 C25.39 0.76 25.39 1.42 25.39 2.1 C26.38 1.77 27.37 1.44 28.39 1.1 C32.22 2.36 35.79 4.3 39.39 6.1 C40.04 6.42 40.69 6.73 41.35 7.06 C43.42 8.08 45.47 9.11 47.52 10.16 C48.18 10.49 48.84 10.82 49.53 11.15 C54.18 13.59 54.18 13.59 55.32 16.34 C55.34 16.92 55.37 17.5 55.39 18.1 C57.04 18.43 58.69 18.76 60.39 19.1 C60.39 20.09 60.39 21.08 60.39 22.1 C61.05 22.1 61.71 22.1 62.39 22.1 C64.02 23.47 64.02 23.47 65.39 25.1 C65.39 25.76 65.39 26.42 65.39 27.1 C66.05 27.1 66.71 27.1 67.39 27.1 C69.02 28.47 69.02 28.47 70.39 30.1 C70.39 30.76 70.39 31.42 70.39 32.1 C71.05 32.1 71.71 32.1 72.39 32.1 C74.02 33.47 74.02 33.47 75.39 35.1 C75.39 35.76 75.39 36.42 75.39 37.1 C76.05 37.1 76.71 37.1 77.39 37.1 C79.02 38.47 79.02 38.47 80.39 40.1 C80.39 40.76 80.39 41.42 80.39 42.1 C81.05 42.1 81.71 42.1 82.39 42.1 C84.02 43.47 84.02 43.47 85.39 45.1 C85.39 45.76 85.39 46.42 85.39 47.1 C86.05 47.1 86.71 47.1 87.39 47.1 C89.02 48.47 89.02 48.47 90.39 50.1 C90.39 50.76 90.39 51.42 90.39 52.1 C91.05 52.1 91.71 52.1 92.39 52.1 C94.02 53.47 94.02 53.47 95.39 55.1 C95.39 55.76 95.39 56.42 95.39 57.1 C96.05 57.1 96.71 57.1 97.39 57.1 C99.02 58.47 99.02 58.47 100.39 60.1 C100.39 60.76 100.39 61.42 100.39 62.1 C101.05 62.1 101.71 62.1 102.39 62.1 C104.02 63.47 104.02 63.47 105.39 65.1 C105.39 65.76 105.39 66.42 105.39 67.1 C106.05 67.1 106.71 67.1 107.39 67.1 C109.02 68.47 109.02 68.47 110.39 70.1 C110.39 70.76 110.39 71.42 110.39 72.1 C111.05 72.1 111.71 72.1 112.39 72.1 C114.02 73.47 114.02 73.47 115.39 75.1 C115.39 75.76 115.39 76.42 115.39 77.1 C116.05 77.1 116.71 77.1 117.39 77.1 C119.02 78.47 119.02 78.47 120.39 80.1 C120.39 80.76 120.39 81.42 120.39 82.1 C121.05 82.1 121.71 82.1 122.39 82.1 C124.02 83.47 124.02 83.47 125.39 85.1 C125.39 85.76 125.39 86.42 125.39 87.1 C126.05 87.1 126.71 87.1 127.39 87.1 C129.02 88.47 129.02 88.47 130.39 90.1 C130.39 90.76 130.39 91.42 130.39 92.1 C131.05 92.1 131.71 92.1 132.39 92.1 C134.02 93.47 134.02 93.47 135.39 95.1 C135.39 95.76 135.39 96.42 135.39 97.1 C136.05 97.1 136.71 97.1 137.39 97.1 C139.02 98.47 139.02 98.47 140.39 100.1 C140.39 100.76 140.39 101.42 140.39 102.1 C141.05 102.1 141.71 102.1 142.39 102.1 C144.02 103.47 144.02 103.47 145.39 105.1 C145.39 105.76 145.39 106.42 145.39 107.1 C146.05 107.1 146.71 107.1 147.39 107.1 C149.02 108.47 149.02 108.47 150.39 110.1 C150.39 110.76 150.39 111.42 150.39 112.1 C151.05 112.1 151.71 112.1 152.39 112.1 C154.02 113.47 154.02 113.47 155.39 115.1 C155.39 115.76 155.39 116.42 155.39 117.1 C156.05 117.1 156.71 117.1 157.39 117.1 C159.02 118.47 159.02 118.47 160.39 120.1 C160.39 120.76 160.39 121.42 160.39 122.1 C161.05 122.1 161.71 122.1 162.39 122.1 C164.02 123.47 164.02 123.47 165.39 125.1 C165.39 125.76 165.39 126.42 165.39 127.1 C166.05 127.1 166.71 127.1 167.39 127.1 C169.02 128.47 169.02 128.47 170.39 130.1 C170.39 130.76 170.39 131.42 170.39 132.1 C171.05 132.1 171.71 132.1 172.39 132.1 C174.02 133.47 174.02 133.47 175.39 135.1 C175.39 135.76 175.39 136.42 175.39 137.1 C176.05 137.1 176.71 137.1 177.39 137.1 C179.02 138.47 179.02 138.47 180.39 140.1 C180.39 140.76 180.39 141.42 180.39 142.1 C181.05 142.1 181.71 142.1 182.39 142.1 C184.02 143.47 184.02 143.47 185.39 145.1 C185.39 145.76 185.39 146.42 185.39 147.1 C186.05 147.1 186.71 147.1 187.39 147.1 C189.02 148.47 189.02 148.47 190.39 150.1 C190.39 150.76 190.39 151.42 190.39 152.1 C191.05 152.1 191.71 152.1 192.39 152.1 C194.02 153.47 194.02 153.47 195.39 155.1 C195.39 155.76 195.39 156.42 195.39 157.1 C196.05 157.1 196.71 157.1 197.39 157.1 C199.02 158.47 199.02 158.47 200.39 160.1 C200.39 160.76 200.39 161.42 200.39 162.1 C201.05 162.1 201.71 162.1 202.39 162.1 C204.02 163.47 204.02 163.47 205.39 165.1 C205.39 165.76 205.39 166.42 205.39 167.1 C206.05 167.1 206.71 167.1 207.39 167.1 C209.02 168.47 209.02 168.47 210.39 170.1 C210.39 170.76 210.39 171.42 210.39 172.1 C211.05 172.1 211.71 172.1 212.39 172.1 C214.02 173.47 214.02 173.47 215.39 175.1 C215.39 175.76 215.39 176.42 215.39 177.1 C216.05 177.1 216.71 177.1 217.39 177.1 C219.02 178.47 219.02 178.47 220.39 180.1 C220.39 180.76 220.39 181.42 220.39 182.1 C221.05 182.1 221.71 182.1 222.39 182.1 C224.02 183.47 224.02 183.47 225.39 185.1 C225.39 185.76 225.39 186.42 225.39 187.1 C226.05 187.1 226.71 187.1 227.39 187.1 C229.02 188.47 229.02 188.47 230.39 190.1 C230.39 190.76 230.39 191.42 230.39 192.1 C231.05 192.1 231.71 192.1 232.39 192.1 C234.02 193.47 234.02 193.47 235.39 195.1 C235.39 195.76 235.39 196.42 235.39 197.1 C236.05 197.1 236.71 197.1 237.39 197.1 C239.02 198.47 239.02 198.47 240.39 200.1 C240.39 200.76 240.39 201.42 240.39 202.1 C241.05 202.1 241.71 202.1 242.39 202.1 C244.02 203.47 244.02 203.47 245.39 205.1 C245.39 205.76 245.39 206.42 245.39 207.1 C246.05 207.1 246.71 207.1 247.39 207.1 C249.02 208.47 249.02 208.47 250.39 210.1 C250.39 210.76 250.39 211.42 250.39 212.1 C251.05 212.1 251.71 212.1 252.39 212.1 C254.02 213.47 254.02 213.47 255.39 215.1 C255.39 215.76 255.39 216.42 255.39 217.1 C256.05 217.1 256.71 217.1 257.39 217.1 C259.02 218.47 259.02 218.47 260.39 220.1 C260.39 220.76 260.39 221.42 260.39 222.1 C261.05 222.1 261.71 222.1 262.39 222.1 C264.02 223.47 264.02 223.47 265.39 225.1 C265.39 225.76 265.39 226.42 265.39 227.1 C266.05 227.1 266.71 227.1 267.39 227.1 C269.02 228.47 269.02 228.47 270.39 230.1 C270.39 230.76 270.39 231.42 270.39 232.1 C271.05 232.1 271.71 232.1 272.39 232.1 C274.02 233.47 274.02 233.47 275.39 235.1 C275.39 235.76 275.39 236.42 275.39 237.1 C276.05 237.1 276.71 237.1 277.39 237.1 C279.02 238.47 279.02 238.47 280.39 240.1 C280.39 240.76 280.39 241.42 280.39 242.1 C281.05 242.1 281.71 242.1 282.39 242.1 C284.02 243.47 284.02 243.47 285.39 245.1 C285.39 245.76 285.39 246.42 285.39 247.1 C286.05 247.1 286.71 247.1 287.39 247.1 C289.02 248.47 289.02 248.47 290.39 250.1 C290.39 250.76 290.39 251.42 290.39 252.1 C291.05 252.1 291.71 252.1 292.39 252.1 C294.02 253.47 294.02 253.47 295.39 255.1 C295.39 255.76 295.39 256.42 295.39 257.1 C296.05 257.1 296.71 257.1 297.39 257.1 C299.02 258.47 299.02 258.47 300.39 260.1 C300.39 260.76 300.39 261.42 300.39 262.1 C301.05 262.1 301.71 262.1 302.39 262.1 C304.02 263.47 304.02 263.47 305.39 265.1 C305.39 265.76 305.39 266.42 305.39 267.1 C306.05 267.1 306.71 267.1 307.39 267.1 C309.02 268.47 309.02 268.47 310.39 270.1 C310.39 270.76 310.39 271.42 310.39 272.1 C311.05 272.1 311.71 272.1 312.39 272.1 C314.02 273.47 314.02 273.47 315.39 275.1 C315.39 275.76 315.39 276.42 315.39 277.1 C316.05 277.1 316.71 277.1 317.39 277.1 C319.02 278.47 319.02 278.47 320.39 280.1 C320.39 280.76 320.39 281.42 320.39 282.1 C321.05 282.1 321.71 282.1 322.39 282.1 C324.02 283.47 324.02 283.47 325.39 285.1 C325.39 285.76 325.39 286.42 325.39 287.1 C326.05 287.1 326.71 287.1 327.39 287.1 C329.02 288.47 329.02 288.47 330.39 290.1 C330.39 290.76 330.39 291.42 330.39 292.1 C331.05 292.1 331.71 292.1 332.39 292.1 C334.02 293.47 334.02 293.47 335.39 295.1 C335.39 295.76 335.39 296.42 335.39 297.1 C336.05 297.1 336.71 297.1 337.39 297.1 C339.02 298.47 339.02 298.47 340.39 300.1 C340.39 300.76 340.39 301.42 340.39 302.1 C341.05 302.1 341.71 302.1 342.39 302.1 C344.02 303.47 344.02 303.47 345.39 305.1 C345.39 305.76 345.39 306.42 345.39 307.1 C346.05 307.1 346.71 307.1 347.39 307.1 C349.02 308.47 349.02 308.47 350.39 310.1 C350.39 310.76 350.39 311.42 350.39 312.1 C351.05 312.1 351.71 312.1 352.39 312.1 C354.02 313.47 354.02 313.47 355.39 315.1 C355.39 315.76 355.39 316.42 355.39 317.1 C356.05 317.1 356.71 317.1 357.39 317.1 C359.02 318.47 359.02 318.47 360.39 320.1 C360.39 320.76 360.39 321.42 360.39 322.1 C361.05 322.1 361.71 322.1 362.39 322.1 C364.02 323.47 364.02 323.47 365.39 325.1 C365.39 325.76 365.39 326.42 365.39 327.1 C366.05 327.1 366.71 327.1 367.39 327.1 C369.02 328.47 369.02 328.47 370.39 330.1 C370.39 330.76 370.39 331.42 370.39 332.1 C371.05 332.1 371.71 332.1 372.39 332.1 C374.02 333.47 374.02 333.47 375.39 335.1 C375.39 335.76 375.39 336.42 375.39 337.1 C376.05 337.1 376.71 337.1 377.39 337.1 C379.02 338.47 379.02 338.47 380.39 340.1 C380.39 340.76 380.39 341.42 380.39 342.1 C381.05 342.1 381.71 342.1 382.39 342.1 C384.02 343.47 384.02 343.47 385.39 345.1 C385.39 345.76 385.39 346.42 385.39 347.1 C386.05 347.1 386.71 347.1 387.39 347.1 C389.02 348.47 389.02 348.47 390.39 350.1 C390.39 350.76 390.39 351.42 390.39 352.1 C391.05 352.1 391.71 352.1 392.39 352.1 C394.02 353.47 394.02 353.47 395.39 355.1 C395.39 355.76 395.39 356.42 395.39 357.1 C396.05 357.1 396.71 357.1 397.39 357.1 C399.02 358.47 399.02 358.47 400.39 360.1 C400.39 360.76 400.39 361.42 400.39 362.1 C401.05 362.1 401.71 362.1 402.39 362.1 C404.02 363.47 404.02 363.47 405.39 365.1 C405.39 365.76 405.39 366.42 405.39 367.1 C406.05 367.1 406.71 367.1 407.39 367.1 C409.02 368.47 409.02 368.47 410.39 370.1 C410.39 370.76 410.39 371.42 410.39 372.1 C411.05 372.1 411.71 372.1 412.39 372.1 C414.02 373.47 414.02 373.47 415.39 375.1 C415.39 375.76 415.39 376.42 415.39 377.1 C416.05 377.1 416.71 377.1 417.39 377.1 C419.02 378.47 419.02 378.47 420.39 380.1 C420.39 380.76 420.39 381.42 420.39 382.1 C421.05 382.1 421.71 382.1 422.39 382.1 C424.02 383.47 424.02 383.47 425.39 385.1 C425.39 385.76 425.39 386.42 425.39 387.1 C426.05 387.1 426.71 387.1 427.39 387.1 C429.02 388.47 429.02 388.47 430.39 390.1 C430.39 390.76 430.39 391.42 430.39 392.1 C431.05 392.1 431.71 392.1 432.39 392.1 C434.02 393.47 434.02 393.47 435.39 395.1 C435.39 395.76 435.39 396.42 435.39 397.1 C436.05 397.1 436.71 397.1 437.39 397.1 C439.02 398.47 439.02 398.47 440.39 400.1 C440.39 400.76 440.39 401.42 440.39 402.1 C441.05 402.1 441.71 402.1 442.39 402.1 C444.02 403.47 444.02 403.47 445.39 405.1 C445.39 405.76 445.39 406.42 445.39 407.1 C446.05 407.1 446.71 407.1 447.39 407.1 C449.02 408.47 449.02 408.47 450.39 410.1 C450.39 410.76 450.39 411.42 450.39 412.1 C451.05 412.1 451.71 412.1 452.39 412.1 C454.02 413.47 454.02 413.47 455.39 415.1 C455.39 415.76 455.39 416.42 455.39 417.1 C456.05 417.1 456.71 417.1 457.39 417.1 C459.02 418.47 459.02 418.47 460.39 420.1 C460.39 420.76 460.39 421.42 460.39 422.1 C461.05 422.1 461.71 422.1 462.39 422.1 C464.02 423.47 464.02 423.47 465.39 425.1 C465.39 425.76 465.39 426.42 465.39 427.1 C466.05 427.1 466.71 427.1 467.39 427.1 C469.02 428.47 469.02 428.47 470.39 430.1 C470.39 430.76 470.39 431.42 470.39 432.1 C471.05 432.1 471.71 432.1 472.39 432.1 C474.02 433.47 474.02 433.47 475.39 435.1 C475.39 435.76 475.39 436.42 475.39 437.1 C476.05 437.1 476.71 437.1 477.39 437.1 C479.02 438.47 479.02 438.47 480.39 440.1 C480.39 440.76 480.39 441.42 480.39 442.1 C481.05 442.1 481.71 442.1 482.39 442.1 C484.02 443.47 484.02 443.47 485.39 445.1 C485.39 445.76 485.39 446.42 485.39 447.1 C486.05 447.1 486.71 447.1 487.39 447.1 C489.02 448.47 489.02 448.47 490.39 450.1 C490.39 450.76 490.39 451.42 490.39 452.1 C491.05 452.1 491.71 452.1 492.39 452.1 C494.02 453.47 494.02 453.47 495.39 455.1 C495.39 455.76 495.39 456.42 495.39 457.1 C496.05 457.1 496.71 457.1 497.39 457.1 C499.02 458.47 499.02 458.47 500.39 460.1 C500.39 460.76 500.39 461.42 500.39 462.1 C501.05 462.1 501.71 462.1 502.39 462.1 C504.02 463.47 504.02 463.47 505.39 465.1 C505.39 465.76 505.39 466.42 505.39 467.1 C506.05 467.1 506.71 467.1 507.39 467.1 C509.02 468.47 509.02 468.47 510.39 470.1 C510.39 470.76 510.39 471.42 510.39 472.1 C511.05 472.1 511.71 472.1 512.39 472.1 C514.02 473.47 514.02 473.47 515.39 475.1 C515.39 475.76 515.39 476.42 515.39 477.1 C516.05 477.1 516.71 477.1 517.39 477.1 C519.02 478.47 519.02 478.47 520.39 480.1 C520.39 480.76 520.39 481.42 520.39 482.1 C521.05 482.1 521.71 482.1 522.39 482.1 C524.02 483.47 524.02 483.47 525.39 485.1 C525.39 485.76 525.39 486.42 525.39 487.1 C526.05 487.1 526.71 487.1 527.39 487.1 C529.02 488.47 529.02 488.47 530.39 490.1 C530.39 490.76 530.39 491.42 530.39 492.1 C531.05 492.1 531.71 492.1 532.39 492.1 C534.02 493.47 534.02 493.47 535.39 495.1 C535.39 495.76 535.39 496.42 535.39 497.1 C536.05 497.1 536.71 497.1 537.39 497.1 C539.02 498.47 539.02 498.47 540.39 500.1 C540.39 500.76 540.39 501.42 540.39 502.1 C541.05 502.1 541.71 502.1 542.39 502.1 C544.02 503.47 544.02 503.47 545.39 505.1 C545.39 505.76 545.39 506.42 545.39 507.1 C546.05 507.1 546.71 507.1 547.39 507.1 C549.02 508.47 549.02 508.47 550.39 510.1 C550.39 510.76 550.39 511.42 550.39 512.1 C551.05 512.1 551.71 512.1 552.39 512.1 C554.02 513.47 554.02 513.47 555.39 515.1 C555.39 515.76 555.39 516.42 555.39 517.1 C556.05 517.1 556.71 517.1 557.39 517.1 C559.02 518.47 559.02 518.47 560.39 520.1 C560.39 520.76 560.39 521.42 560.39 522.1 C561.05 522.1 561.71 522.1 562.39 522.1 C564.02 523.47 564.02 523.47 565.39 525.1 C565.39 525.76 565.39 526.42 565.39 527.1 C566.05 527.1 566.71 527.1 567.39 527.1 C569.02 528.47 569.02 528.47 570.39 530.1 C570.39 530.76 570.39 531.42 570.39 532.1 C571.05 532.1 571.71 532.1 572.39 532.1 C574.02 533.47 574.02 533.47 575.39 535.1 C575.39 535.76 575.39 536.42 575.39 537.1 C576.05 537.1 576.71 537.1 577.39 537.1 C579.02 538.47 579.02 538.47 580.39 540.1 C580.39 540.76 580.39 541.42 580.39 542.1 C581.05 542.1 581.71 542.1 582.39 542.1 C584.02 543.47 584.02 543.47 585.39 545.1 C585.39 545.76 585.39 546.42 585.39 547.1 C586.05 547.1 586.71 547.1 587.39 547.1 C589.02 548.47 589.02 548.47 590.39 550.1 C590.39 550.76 590.39 551.42 590.39 552.1 C591.05 552.1 591.71 552.1 592.39 552.1 C594.02 553.47 594.02 553.47 595.39 555.1 C595.39 555.76 595.39 556.42 595.39 557.1 C596.05 557.1 596.71 557.1 597.39 557.1 C599.02 558.47 599.02 558.47 600.39 560.1 C600.39 560.76 600.39 561.42 600.39 562.1 C601.05 562.1 601.71 562.1 602.39 562.1 C604.02 563.47 604.02 563.47 605.39 565.1 C605.39 565.76 605.39 566.42 605.39 567.1 C606.05 567.1 606.71 567.1 607.39 567.1 C609.02 568.47 609.02 568.47 610.39 570.1 C610.39 570.76 610.39 571.42 610.39 572.1 C611.05 572.1 611.71 572.1 612.39 572.1 C614.02 573.47 614.02 573.47 615.39 575.1 C615.39 575.76 615.39 576.42 615.39 577.1 C616.05 577.1 616.71 577.1 617.39 577.1 C619.02 578.47 619.02 578.47 620.39 580.1 C620.39 580.76 620.39 581.42 620.39 582.1 C621.05 582.1 621.71 582.1 622.39 582.1 C624.02 583.47 624.02 583.47 625.39 585.1 C625.39 585.76 625.39 586.42 625.39 587.1 C626.05 587.1 626.71 587.1 627.39 587.1 C628.98 588.89 628.98 588.89 630.77 591.29 C632.61 593.74 634.44 596.15 636.45 598.47 C640.59 604.08 644.3 610.15 645.39 617.1 C645.72 618.68 646.05 620.27 646.39 621.85 C646.56 622.63 646.72 623.4 646.89 624.21 C647.22 626.1 647.22 626.1 648.39 627.1 C649.75 635.42 650.28 643.09 647.39 651.1 C647.05 653.05 646.74 655.01 646.45 656.97 C643.93 672.42 635.27 683.99 624.32 694.79 C623.32 695.79 622.32 696.8 621.32 697.81 C618.59 700.56 615.84 703.29 613.09 706.02 C610.09 709 607.11 712 604.13 714.99 C598.9 720.23 593.67 725.46 588.43 730.68 C580.64 738.45 572.86 746.22 565.09 754.01 C552.01 767.1 538.92 780.18 525.82 793.26 C512.86 806.2 499.89 819.15 486.94 832.1 C485.73 833.31 485.73 833.31 484.5 834.54 C481.23 837.81 477.95 841.09 474.68 844.36 C444 875.04 413.31 905.7 382.61 936.36 C355.32 963.62 328.03 990.88 300.76 1018.15 C299.89 1019.02 299.02 1019.89 298.13 1020.78 C295.5 1023.41 292.88 1026.04 290.25 1028.66 C286.76 1032.15 283.28 1035.63 279.79 1039.12 C278.93 1039.98 278.07 1040.84 277.18 1041.73 C250.33 1068.58 223.47 1095.42 196.6 1122.27 C187.69 1131.18 178.77 1140.09 169.85 1149 C169.05 1149.81 168.25 1150.61 167.42 1151.44 C166.61 1152.24 165.81 1153.04 164.99 1153.87 C149.57 1169.28 134.14 1184.7 118.71 1200.1 C110.97 1207.83 103.24 1215.56 95.5 1223.29 C90.35 1228.45 85.19 1233.6 80.03 1238.75 C77.08 1241.69 74.13 1244.63 71.19 1247.57 C68.52 1250.25 65.85 1252.92 63.17 1255.58 C61.74 1257.01 60.32 1258.43 58.9 1259.86 C58.06 1260.69 57.22 1261.52 56.36 1262.38 C55.64 1263.1 54.91 1263.83 54.17 1264.57 C52.39 1266.1 52.39 1266.1 50.39 1266.1 C50.39 1266.76 50.39 1267.42 50.39 1268.1 C35.22 1276.61 35.22 1276.61 27.15 1278.62 C25.38 1278.94 25.38 1278.94 24.39 1280.1 C19.87 1280.32 15.34 1280.28 10.81 1280.28 C8.53 1280.29 6.26 1280.3 3.98 1280.32 C2.54 1280.33 1.09 1280.33 -0.35 1280.33 C-2.33 1280.33 -2.33 1280.33 -4.35 1280.34 C-7.61 1280.1 -7.61 1280.1 -10.61 1278.1 C-12.94 1277.41 -15.27 1276.74 -17.61 1276.1 C-20.67 1275.01 -22.31 1274.4 -24.61 1272.1 C-25.93 1271.41 -27.27 1270.75 -28.61 1270.1 C-35.35 1266.35 -41.31 1261.69 -46.61 1256.1 C-47.85 1254.86 -47.85 1254.86 -49.11 1253.6 C-58.28 1244.43 -67.44 1235.26 -76.61 1226.1 C-77.39 1225.33 -78.18 1224.57 -78.98 1223.79 C-81.82 1220.89 -84.44 1217.86 -87.06 1214.77 C-88.52 1212.99 -88.52 1212.99 -90.61 1212.1 C-91.61 1210.43 -92.61 1208.76 -93.61 1207.1 C-94.27 1206.77 -94.93 1206.44 -95.61 1206.1 C-95.96 1204.43 -96.29 1202.77 -96.61 1201.1 C-97.39 1199.39 -98.23 1197.7 -99.11 1196.04 C-100.7 1193.03 -101.83 1190.4 -102.61 1187.1 C-102.95 1185.88 -103.28 1184.65 -103.63 1183.39 C-104.71 1179.05 -105.08 1174.81 -105.3 1170.35 C-105.34 1169.61 -105.39 1168.87 -105.44 1168.1 C-105.64 1164.53 -105.55 1161.53 -104.61 1158.1 C-104.32 1155.77 -104.11 1153.45 -103.89 1151.12 C-103.61 1149.1 -103.61 1149.1 -102.61 1147.1 C-101.95 1147.1 -101.29 1147.1 -100.61 1147.1 C-100.61 1144.79 -100.61 1142.48 -100.61 1140.1 C-99.95 1140.1 -99.29 1140.1 -98.61 1140.1 C-98.51 1139.38 -98.4 1138.65 -98.3 1137.91 C-97.55 1134.84 -96.29 1132.76 -94.61 1130.1 C-94.28 1129.11 -93.95 1128.12 -93.61 1127.1 C-92.62 1127.1 -91.63 1127.1 -90.61 1127.1 C-91.1 1125.61 -91.1 1125.61 -91.61 1124.1 C-90.98 1123.47 -90.98 1123.47 -90.34 1122.83 C-44.82 1077.38 0.7 1031.92 46.21 986.45 C47.22 985.43 47.22 985.43 48.26 984.4 C63.03 969.64 77.79 954.89 92.55 940.14 C99.79 932.91 107.03 925.67 114.27 918.44 C115.35 917.36 115.35 917.36 116.45 916.26 C139.82 892.91 163.19 869.57 186.56 846.23 C210.58 822.25 234.58 798.27 258.58 774.28 C261.97 770.89 265.36 767.51 268.74 764.12 C269.41 763.46 270.08 762.79 270.76 762.1 C281.51 751.36 292.26 740.63 303.02 729.89 C313.83 719.11 324.62 708.33 335.41 697.53 C341.83 691.11 348.25 684.7 354.68 678.29 C358.97 674.02 363.25 669.74 367.53 665.45 C369.97 663 372.41 660.56 374.86 658.12 C377.5 655.51 380.12 652.87 382.74 650.24 C383.9 649.1 383.9 649.1 385.08 647.94 C385.77 647.23 386.46 646.53 387.18 645.81 C387.78 645.21 388.38 644.61 389 643.99 C390.67 641.72 391.03 639.86 391.39 637.1 C390.77 636.85 390.15 636.6 389.52 636.35 C387 634.87 386.63 633.66 385.39 631.1 C384.4 630.77 383.41 630.44 382.39 630.1 C381.72 628.76 381.06 627.43 380.39 626.1 C379.4 625.77 378.41 625.44 377.39 625.1 C376.72 623.76 376.06 622.43 375.39 621.1 C374.4 620.77 373.41 620.44 372.39 620.1 C371.72 618.76 371.06 617.43 370.39 616.1 C369.4 615.77 368.41 615.44 367.39 615.1 C366.72 613.76 366.06 612.43 365.39 611.1 C364.4 610.77 363.41 610.44 362.39 610.1 C361.72 608.76 361.06 607.43 360.39 606.1 C359.4 605.77 358.41 605.44 357.39 605.1 C356.72 603.76 356.06 602.43 355.39 601.1 C354.4 600.77 353.41 600.44 352.39 600.1 C351.72 598.76 351.06 597.43 350.39 596.1 C349.4 595.77 348.41 595.44 347.39 595.1 C346.72 593.76 346.06 592.43 345.39 591.1 C344.4 590.77 343.41 590.44 342.39 590.1 C341.72 588.76 341.06 587.43 340.39 586.1 C339.4 585.77 338.41 585.44 337.39 585.1 C336.72 583.76 336.06 582.43 335.39 581.1 C334.4 580.77 333.41 580.44 332.39 580.1 C331.72 578.76 331.06 577.43 330.39 576.1 C329.4 575.77 328.41 575.44 327.39 575.1 C326.72 573.76 326.06 572.43 325.39 571.1 C324.4 570.77 323.41 570.44 322.39 570.1 C321.72 568.76 321.06 567.43 320.39 566.1 C319.4 565.77 318.41 565.44 317.39 565.1 C316.72 563.76 316.06 562.43 315.39 561.1 C314.4 560.77 313.41 560.44 312.39 560.1 C311.72 558.76 311.06 557.43 310.39 556.1 C309.4 555.77 308.41 555.44 307.39 555.1 C306.72 553.76 306.06 552.43 305.39 551.1 C304.4 550.77 303.41 550.44 302.39 550.1 C301.72 548.76 301.06 547.43 300.39 546.1 C299.4 545.77 298.41 545.44 297.39 545.1 C296.72 543.76 296.06 542.43 295.39 541.1 C294.4 540.77 293.41 540.44 292.39 540.1 C291.72 538.76 291.06 537.43 290.39 536.1 C289.4 535.77 288.41 535.44 287.39 535.1 C286.72 533.76 286.06 532.43 285.39 531.1 C284.4 530.77 283.41 530.44 282.39 530.1 C281.72 528.76 281.06 527.43 280.39 526.1 C279.4 525.77 278.41 525.44 277.39 525.1 C276.72 523.76 276.06 522.43 275.39 521.1 C274.4 520.77 273.41 520.44 272.39 520.1 C271.72 518.76 271.06 517.43 270.39 516.1 C269.4 515.77 268.41 515.44 267.39 515.1 C266.72 513.76 266.06 512.43 265.39 511.1 C264.4 510.77 263.41 510.44 262.39 510.1 C261.72 508.76 261.06 507.43 260.39 506.1 C259.4 505.77 258.41 505.44 257.39 505.1 C256.72 503.76 256.06 502.43 255.39 501.1 C254.4 500.77 253.41 500.44 252.39 500.1 C251.72 498.76 251.06 497.43 250.39 496.1 C249.4 495.77 248.41 495.44 247.39 495.1 C246.72 493.76 246.06 492.43 245.39 491.1 C244.4 490.77 243.41 490.44 242.39 490.1 C241.72 488.76 241.06 487.43 240.39 486.1 C239.4 485.77 238.41 485.44 237.39 485.1 C236.72 483.76 236.06 482.43 235.39 481.1 C234.4 480.77 233.41 480.44 232.39 480.1 C231.72 478.76 231.06 477.43 230.39 476.1 C229.4 475.77 228.41 475.44 227.39 475.1 C226.72 473.76 226.06 472.43 225.39 471.1 C224.4 470.77 223.41 470.44 222.39 470.1 C221.72 468.76 221.06 467.43 220.39 466.1 C219.4 465.77 218.41 465.44 217.39 465.1 C216.72 463.76 216.06 462.43 215.39 461.1 C214.4 460.77 213.41 460.44 212.39 460.1 C211.72 458.76 211.06 457.43 210.39 456.1 C209.4 455.77 208.41 455.44 207.39 455.1 C206.72 453.76 206.06 452.43 205.39 451.1 C204.4 450.77 203.41 450.44 202.39 450.1 C201.72 448.76 201.06 447.43 200.39 446.1 C199.4 445.77 198.41 445.44 197.39 445.1 C196.72 443.76 196.06 442.43 195.39 441.1 C194.4 440.77 193.41 440.44 192.39 440.1 C191.72 438.76 191.06 437.43 190.39 436.1 C189.4 435.77 188.41 435.44 187.39 435.1 C186.72 433.76 186.06 432.43 185.39 431.1 C184.4 430.77 183.41 430.44 182.39 430.1 C181.72 428.76 181.06 427.43 180.39 426.1 C179.4 425.77 178.41 425.44 177.39 425.1 C176.7 423.78 176.04 422.44 175.39 421.1 C173.92 419.64 173.92 419.64 172.2 418.35 C168.75 415.51 165.91 412.38 163.02 408.98 C160.93 406.56 158.68 404.33 156.39 402.1 C126.39 372.1 126.39 372.1 123.83 369.41 C121.6 367.06 121.6 367.06 119.2 366.04 C116.85 364.82 116.52 363.43 115.39 361.1 C114.4 360.77 113.41 360.44 112.39 360.1 C111.72 358.76 111.06 357.43 110.39 356.1 C109.4 355.77 108.41 355.44 107.39 355.1 C106.72 353.76 106.06 352.43 105.39 351.1 C104.4 350.77 103.41 350.44 102.39 350.1 C101.72 348.76 101.06 347.43 100.39 346.1 C99.4 345.77 98.41 345.44 97.39 345.1 C96.72 343.76 96.06 342.43 95.39 341.1 C94.4 340.77 93.41 340.44 92.39 340.1 C91.72 338.76 91.06 337.43 90.39 336.1 C89.4 335.77 88.41 335.44 87.39 335.1 C86.72 333.76 86.06 332.43 85.39 331.1 C84.4 330.77 83.41 330.44 82.39 330.1 C81.72 328.76 81.06 327.43 80.39 326.1 C79.4 325.77 78.41 325.44 77.39 325.1 C76.72 323.76 76.06 322.43 75.39 321.1 C74.4 320.77 73.41 320.44 72.39 320.1 C71.7 318.78 71.04 317.44 70.39 316.1 C68.92 314.64 68.92 314.64 67.2 313.35 C63.75 310.51 60.91 307.38 58.02 303.98 C55.93 301.56 53.68 299.33 51.39 297.1 C-8.61 237.1 -8.61 237.1 -11.17 234.41 C-13.4 232.06 -13.4 232.06 -15.8 231.04 C-18.15 229.82 -18.48 228.43 -19.61 226.1 C-20.6 225.77 -21.59 225.44 -22.61 225.1 C-23.28 223.76 -23.94 222.43 -24.61 221.1 C-25.6 220.77 -26.59 220.44 -27.61 220.1 C-28.28 218.76 -28.94 217.43 -29.61 216.1 C-30.6 215.77 -31.59 215.44 -32.61 215.1 C-33.28 213.76 -33.94 212.43 -34.61 211.1 C-35.6 210.77 -36.59 210.44 -37.61 210.1 C-38.28 208.76 -38.94 207.43 -39.61 206.1 C-40.6 205.77 -41.59 205.44 -42.61 205.1 C-43.28 203.76 -43.94 202.43 -44.61 201.1 C-45.6 200.77 -46.59 200.44 -47.61 200.1 C-48.28 198.76 -48.94 197.43 -49.61 196.1 C-50.6 195.77 -51.59 195.44 -52.61 195.1 C-53.28 193.76 -53.94 192.43 -54.61 191.1 C-55.6 190.77 -56.59 190.44 -57.61 190.1 C-58.28 188.76 -58.94 187.43 -59.61 186.1 C-60.6 185.77 -61.59 185.44 -62.61 185.1 C-63.28 183.76 -63.94 182.43 -64.61 181.1 C-65.6 180.77 -66.59 180.44 -67.61 180.1 C-68.28 178.76 -68.94 177.43 -69.61 176.1 C-70.6 175.77 -71.59 175.44 -72.61 175.1 C-73.28 173.76 -73.94 172.43 -74.61 171.1 C-75.6 170.77 -76.59 170.44 -77.61 170.1 C-78.28 168.76 -78.94 167.43 -79.61 166.1 C-80.6 165.77 -81.59 165.44 -82.61 165.1 C-83.98 162.81 -84.76 160.64 -85.61 158.1 C-86.27 158.1 -86.93 158.1 -87.61 158.1 C-88.97 156.12 -90.3 154.12 -91.61 152.1 C-92.15 151.58 -92.68 151.07 -93.23 150.54 C-95.08 148.6 -95.65 146.59 -96.61 144.1 C-97.87 141.11 -99.13 138.12 -100.39 135.13 C-105.61 122.15 -105.73 107.87 -103.61 94.1 C-102.62 93.11 -102.62 93.11 -101.61 92.1 C-100.91 89.77 -100.24 87.44 -99.61 85.1 C-97.85 80.33 -95.69 75.73 -93.61 71.1 C-92.62 71.43 -91.63 71.76 -90.61 72.1 C-90.94 71.11 -91.27 70.12 -91.61 69.1 C-72.47 49.96 -53.33 30.82 -33.61 11.1 C-32.62 11.43 -31.63 11.76 -30.61 12.1 C-30.61 11.11 -30.61 10.12 -30.61 9.1 C-29.62 8.77 -28.63 8.44 -27.61 8.1 C-26.62 8.59 -26.62 8.59 -25.61 9.1 C-25.61 8.44 -25.61 7.78 -25.61 7.1 C-18.34 2.76 -18.34 2.76 -14.61 2.1 C-13.62 1.77 -12.63 1.44 -11.61 1.1 C-7.78 -0.15 -3.98 -0.03 0 0 Z M392.39 638.1 C393.39 641.1 393.39 641.1 393.39 641.1 Z " fill="#000100" transform="translate(367.609375,-0.09765625)"/>
<path d="M0 0 C1 4 1 4 1 4 Z " fill="#FBFDFD" transform="translate(1015,651)"/>
<path d="M0 0 C2 1 2 1 2 1 Z " fill="#000100" transform="translate(755,640)"/>
<path d="" fill="#FBFDFD" transform="translate(0,0)"/>
<path d="" fill="#FBFDFD" transform="translate(0,0)"/>
<path d="" fill="#FBFDFD" transform="translate(0,0)"/>
<path d="" fill="#000100" transform="translate(0,0)"/>
<path d="" fill="#FBFDFD" transform="translate(0,0)"/>
<path d="" fill="#FBFDFD" transform="translate(0,0)"/>
<path d="" fill="#000100" transform="translate(0,0)"/>
<path d="" fill="#000100" transform="translate(0,0)"/>
<path d="" fill="#000100" transform="translate(0,0)"/>
</svg>
